<?xml version="1.0" standalone="no"?>
<!DOCTYPE svg PUBLIC "-//W3C//DTD SVG 20010904//EN"
 "http://www.w3.org/TR/2001/REC-SVG-20010904/DTD/svg10.dtd">
<svg version="1.0" xmlns="http://www.w3.org/2000/svg"
 width="2560.000000pt" height="1301.000000pt" viewBox="0 0 2560.000000 1301.000000"
 preserveAspectRatio="xMidYMid meet">

<g transform="translate(0.000000,1301.000000) scale(0.100000,-0.100000)"
fill="#000000" stroke="none">
<path d="M12398 12234 c-414 -36 -776 -117 -1173 -262 -76 -28 -105 -40 -200
-80 -212 -90 -555 -283 -759 -425 -302 -212 -634 -516 -841 -771 -22 -27 -52
-63 -66 -80 -152 -182 -358 -504 -490 -767 -112 -224 -222 -508 -289 -744 -18
-62 -51 -191 -59 -230 -5 -22 -16 -74 -25 -115 -91 -425 -106 -995 -40 -1460
116 -815 475 -1600 1016 -2225 112 -129 367 -380 488 -481 576 -479 1223 -788
1965 -938 285 -58 432 -70 815 -71 352 0 398 3 654 41 918 137 1754 561 2416
1223 312 312 543 621 754 1009 182 334 346 774 418 1117 5 28 14 70 19 95 27
128 52 298 69 479 15 153 12 612 -5 776 -21 210 -42 338 -86 540 -81 372 -240
791 -431 1135 -485 873 -1250 1555 -2158 1924 -174 70 -451 162 -590 195 -25
5 -76 17 -113 26 -38 9 -92 20 -120 25 -29 5 -90 15 -137 23 -310 54 -709 70
-1032 41z m473 -168 c52 -35 82 -95 81 -165 -1 -73 -37 -126 -109 -161 l-52
-25 -1 -107 c0 -98 2 -107 20 -113 35 -11 62 -61 58 -107 l-3 -42 176 -101
c96 -55 211 -121 255 -147 190 -111 675 -389 688 -394 9 -3 27 4 42 15 68 53
164 6 164 -81 -1 -50 -12 -69 -60 -95 l-35 -20 -3 -146 c-2 -96 1 -147 8 -147
12 0 218 117 241 137 13 10 16 25 12 53 -5 35 -2 43 30 75 49 49 95 49 144 0
31 -31 35 -40 31 -76 -3 -35 0 -43 22 -58 24 -18 87 -54 625 -364 143 -82 309
-178 369 -212 l108 -63 35 24 c41 27 80 31 109 9 28 -21 35 -20 126 34 l83 49
0 75 c0 69 3 78 31 114 46 56 89 78 156 78 47 0 64 -6 100 -30 157 -109 86
-345 -103 -345 -48 0 -65 5 -107 34 l-51 34 -77 -45 c-101 -57 -104 -60 -104
-97 0 -41 -24 -75 -66 -92 l-34 -14 0 -650 0 -650 34 -14 c90 -38 90 -162 -1
-197 -37 -14 -57 -11 -95 15 l-35 23 -126 -71 c-70 -39 -125 -75 -123 -81 1
-5 58 -42 126 -81 l123 -71 35 23 c75 51 161 8 162 -81 0 -49 -22 -83 -66
-101 l-34 -14 0 -650 0 -650 34 -14 c42 -18 66 -51 66 -93 0 -35 0 -35 129
-112 l54 -32 21 20 c82 77 232 62 293 -30 69 -105 15 -255 -104 -288 -47 -13
-59 -13 -106 0 -86 24 -145 115 -134 208 l6 49 -85 51 c-47 28 -89 51 -94 51
-4 0 -21 -7 -36 -15 -40 -21 -66 -19 -106 9 l-36 24 -233 -135 c-129 -74 -376
-216 -549 -315 -173 -100 -322 -187 -331 -195 -10 -8 -14 -24 -11 -45 6 -39
-21 -92 -54 -107 -47 -21 -84 -13 -121 24 -33 33 -35 39 -30 78 l6 43 -124 72
c-69 40 -129 72 -135 72 -6 0 -10 -57 -10 -150 0 -131 2 -150 16 -150 9 0 31
-15 50 -34 28 -28 34 -42 34 -76 0 -84 -97 -132 -163 -80 -14 11 -29 20 -34
20 -4 0 -55 -28 -113 -61 -58 -34 -258 -149 -445 -256 -187 -108 -392 -226
-456 -264 l-117 -69 5 -44 c5 -41 3 -46 -36 -84 l-41 -40 0 -100 0 -100 35
-12 c79 -26 126 -91 127 -174 1 -68 -30 -128 -84 -163 -59 -40 -147 -40 -206
0 -67 44 -100 126 -81 201 15 59 60 111 114 132 l45 17 0 101 0 101 -37 31
c-34 29 -38 37 -39 83 0 39 -5 55 -20 65 -10 8 -167 99 -349 203 -181 104
-416 240 -521 301 -250 145 -236 140 -270 113 -66 -52 -164 -6 -164 77 0 44
26 84 68 104 l27 13 3 148 c2 120 0 148 -11 145 -7 -2 -67 -34 -134 -72 l-120
-68 5 -44 c4 -39 1 -47 -31 -79 -49 -49 -95 -49 -144 0 -32 32 -35 40 -31 79
l5 43 -291 168 c-160 92 -408 235 -551 317 -143 82 -265 154 -271 159 -8 7
-24 1 -49 -16 -43 -29 -68 -31 -109 -10 -15 8 -32 15 -35 15 -4 0 -46 -23 -93
-51 l-86 -50 5 -58 c6 -67 -16 -122 -67 -164 -29 -25 -86 -47 -120 -47 -71 0
-149 56 -176 125 -71 187 163 339 312 203 l22 -20 88 54 c85 52 89 56 95 95 6
49 23 71 67 90 l32 13 0 650 0 650 -34 14 c-44 18 -66 51 -66 99 0 31 7 46 34
73 40 40 75 44 124 14 18 -11 38 -20 45 -20 17 0 240 133 243 145 2 6 -53 42
-123 81 l-126 71 -36 -24 c-47 -32 -95 -26 -133 17 -51 56 -32 137 38 166 l34
14 0 650 0 650 -32 13 c-44 19 -61 41 -67 90 -6 40 -9 44 -95 95 -88 53 -89
53 -110 34 -37 -34 -84 -52 -137 -52 -97 0 -174 69 -185 167 -20 165 179 273
306 166 50 -42 72 -96 68 -166 l-3 -60 88 -50 c88 -50 89 -50 117 -34 39 23
71 21 113 -7 l35 -24 144 83 c78 45 276 159 438 252 162 94 345 199 405 233
144 82 144 83 138 130 -5 35 -2 43 30 75 49 49 95 49 144 0 32 -32 35 -40 30
-75 -4 -28 -1 -42 12 -53 25 -21 228 -137 240 -137 8 0 11 45 9 147 l-3 148
-27 13 c-42 20 -68 60 -68 104 0 82 98 129 163 78 27 -22 48 -25 63 -11 5 5
155 93 334 196 179 103 361 208 404 233 44 26 143 83 220 127 l141 81 -3 36
c-4 45 21 95 53 110 24 11 25 14 25 117 l0 106 -45 19 c-151 61 -160 267 -15
343 58 31 134 26 191 -11z"/>
<path d="M12505 11175 c-238 -138 -544 -315 -780 -450 -122 -70 -166 -101
-187 -131 l-28 -39 3 -190 2 -190 245 -141 c135 -78 312 -179 393 -227 l149
-85 35 24 c51 34 88 31 129 -10 58 -58 42 -141 -32 -172 l-34 -14 0 -454 c0
-419 1 -454 18 -468 22 -19 301 -178 313 -178 5 0 9 103 9 233 l0 233 -51 23
c-53 25 -91 70 -109 132 -23 79 31 181 115 215 l45 19 -2 994 c-2 653 -6 995
-13 997 -5 1 -104 -53 -220 -121z"/>
<path d="M12790 10302 l0 -998 35 -13 c80 -29 126 -92 127 -175 1 -88 -53
-165 -130 -185 l-27 -7 -3 -237 c-1 -138 1 -237 7 -237 11 0 290 158 314 178
16 14 17 49 17 468 l0 454 -34 14 c-44 18 -66 51 -66 99 0 31 7 46 34 73 41
41 78 44 129 10 l35 -24 113 65 c63 36 130 74 149 85 19 11 69 40 111 65 42
24 152 88 245 141 l169 97 2 190 3 190 -28 39 c-28 41 -3 25 -866 522 -176
101 -323 184 -328 184 -4 0 -8 -449 -8 -998z"/>
<path d="M11005 10311 c-6 -5 -86 -53 -180 -106 -336 -194 -683 -393 -815
-470 -74 -42 -139 -81 -145 -86 -14 -14 6 -29 190 -135 94 -53 301 -172 460
-264 160 -92 349 -201 420 -242 72 -41 234 -135 360 -208 127 -73 242 -140
256 -149 25 -14 29 -14 60 10 99 75 220 57 286 -43 22 -33 27 -51 27 -110 l1
-70 195 -113 c107 -62 198 -111 202 -109 5 3 8 89 8 192 l0 187 -63 37 c-80
47 -616 356 -683 393 l-51 29 -28 -22 c-67 -53 -165 -7 -165 76 0 46 26 84 70
102 l30 13 -2 459 -3 460 -154 89 c-144 83 -158 89 -211 89 -31 0 -60 -4 -65
-9z"/>
<path d="M14325 10276 c-38 -24 -107 -64 -152 -90 l-83 -48 0 -459 0 -459 25
-6 c40 -10 75 -59 75 -106 0 -82 -98 -129 -163 -78 -14 11 -28 20 -31 20 -4 0
-184 -102 -401 -227 l-395 -227 0 -187 c0 -104 4 -190 8 -193 4 -3 96 46 203
109 l194 113 -2 39 c-3 55 15 123 42 159 29 38 102 74 150 74 38 0 116 -32
136 -56 6 -8 15 -14 19 -14 9 0 -5 -8 485 275 462 267 911 526 1092 629 83 47
142 87 140 94 -1 8 -49 41 -107 74 -58 34 -235 136 -395 228 -159 92 -373 215
-474 274 -175 102 -186 106 -240 105 -48 0 -66 -7 -126 -43z"/>
<path d="M11510 9648 c0 -436 0 -444 22 -484 20 -39 47 -56 372 -243 193 -111
364 -210 380 -221 17 -10 33 -17 38 -14 4 3 8 204 8 447 -1 437 -1 442 -23
480 -23 41 -16 36 -527 329 -124 71 -229 134 -234 139 -35 33 -36 18 -36 -433z"/>
<path d="M13985 10081 c-9 -8 -224 -134 -465 -271 -260 -148 -278 -160 -299
-201 -20 -38 -21 -53 -21 -484 0 -245 2 -445 5 -445 3 0 69 37 148 83 78 46
250 145 382 221 206 118 244 144 263 176 21 38 22 45 22 482 1 359 -2 444 -12
446 -7 1 -18 -2 -23 -7z"/>
<path d="M9827 9583 c-13 -12 -8 -1368 4 -1380 6 -6 16 -21 23 -33 10 -20 306
-200 328 -200 9 0 591 333 733 419 60 36 60 37 57 79 -3 37 0 46 31 77 49 49
95 49 144 0 32 -32 35 -40 30 -75 -3 -24 0 -43 7 -49 27 -22 772 -451 784
-451 20 0 317 179 317 191 0 13 -20 25 -263 165 l-133 77 -22 -20 c-59 -55
-147 -69 -215 -34 -73 37 -105 97 -100 184 l3 61 -50 29 c-55 33 -599 347
-1050 607 -443 255 -557 321 -591 341 -17 10 -34 16 -37 12z"/>
<path d="M15565 9512 c-71 -41 -260 -150 -420 -242 -159 -92 -452 -261 -650
-375 -198 -114 -395 -228 -437 -252 -43 -24 -80 -47 -82 -52 -3 -4 -1 -22 3
-39 6 -18 5 -48 0 -74 -33 -144 -206 -196 -316 -95 l-22 20 -118 -68 c-65 -38
-154 -89 -198 -115 -44 -25 -80 -52 -80 -59 0 -12 297 -191 317 -191 11 0 756
428 779 447 13 11 16 25 12 53 -5 35 -2 43 30 75 47 47 91 48 142 3 33 -28 36
-36 34 -76 -3 -37 1 -47 21 -61 67 -47 762 -442 773 -439 6 2 79 41 161 88
115 66 154 93 172 122 l24 38 0 679 c0 374 -3 682 -7 684 -5 3 -66 -29 -138
-71z"/>
<path d="M12407 8543 c-4 -3 -7 -71 -7 -150 l0 -143 34 -14 c42 -17 66 -51 66
-92 0 -17 8 -38 18 -46 25 -22 197 -118 211 -118 8 0 11 39 11 128 l0 127 -37
31 c-35 29 -38 36 -39 84 l0 53 -95 54 c-52 30 -108 63 -125 74 -17 10 -34 16
-37 12z"/>
<path d="M12990 8475 l-125 -73 3 -47 c4 -43 1 -49 -37 -84 l-41 -38 0 -125
c0 -68 2 -127 6 -130 5 -6 188 96 218 122 9 7 16 27 16 44 0 37 23 68 68 90
l32 17 0 149 c0 83 -3 150 -7 149 -5 0 -64 -33 -133 -74z"/>
<path d="M10835 8263 c-188 -110 -378 -220 -504 -293 -70 -41 -74 -44 -55 -58
10 -7 183 -108 384 -224 317 -182 371 -210 410 -212 41 -1 74 15 410 208 435
248 414 236 404 246 -5 5 -79 49 -164 98 -231 133 -415 239 -508 293 -74 44
-89 49 -140 48 -54 0 -67 -6 -237 -106z"/>
<path d="M14335 8332 c-33 -20 -201 -117 -372 -217 -172 -99 -314 -184 -314
-190 -1 -5 7 -15 17 -20 11 -6 51 -29 89 -51 39 -23 203 -117 365 -210 269
-154 299 -169 340 -168 39 1 94 30 424 220 208 121 378 223 378 228 0 9 -92
64 -526 314 -221 128 -230 132 -285 131 -46 0 -67 -7 -116 -37z"/>
<path d="M12177 8006 c-70 -39 -125 -75 -123 -81 3 -12 226 -145 243 -145 7 0
27 9 45 20 40 24 76 25 107 4 27 -20 34 -17 170 64 108 64 112 51 -42 138 -98
56 -98 56 -132 40 -45 -22 -66 -20 -107 8 l-35 23 -126 -71z"/>
<path d="M13205 8060 c-26 -29 -76 -35 -119 -15 l-35 17 -112 -64 c-61 -35
-111 -68 -111 -74 0 -5 15 -17 34 -27 18 -10 68 -39 112 -64 77 -45 79 -46
106 -30 39 23 71 21 113 -7 l35 -24 113 65 c110 62 148 88 138 96 -2 2 -47 28
-99 57 -52 29 -107 62 -122 72 -32 22 -31 22 -53 -2z"/>
<path d="M10145 7866 c-11 -8 -80 -49 -153 -92 -85 -49 -137 -86 -142 -100 -5
-12 -14 -25 -19 -29 -13 -7 -16 -1371 -3 -1378 4 -3 140 72 302 166 162 93
500 288 750 432 250 144 504 291 564 326 l110 64 -3 62 c-5 129 82 213 210
201 36 -4 60 -14 90 -37 22 -18 45 -30 52 -27 71 34 382 225 382 235 0 7 -29
30 -65 51 -36 20 -105 60 -153 89 -49 28 -94 51 -101 51 -7 0 -32 -13 -57 -28
-24 -15 -200 -117 -390 -226 l-346 -199 5 -43 c4 -39 1 -47 -31 -79 -49 -49
-95 -49 -144 0 -33 33 -35 39 -30 78 l6 43 -347 199 c-191 110 -367 212 -391
227 -50 31 -66 33 -96 14z"/>
<path d="M12790 7749 l0 -132 41 -37 c37 -35 40 -41 38 -85 -2 -32 2 -50 12
-56 179 -105 235 -136 242 -132 4 2 7 69 7 148 l0 144 -32 17 c-46 23 -67 53
-68 94 0 34 -4 37 -112 100 -61 36 -115 67 -120 68 -4 2 -8 -56 -8 -129z"/>
<path d="M13485 7842 c-33 -21 -102 -62 -153 -91 -51 -29 -91 -58 -89 -64 3
-9 330 -207 384 -233 7 -3 30 9 53 27 77 62 203 46 263 -33 32 -42 48 -109 36
-150 -4 -17 -6 -34 -4 -39 3 -4 72 -46 153 -92 81 -47 219 -126 307 -177 88
-51 291 -168 450 -260 625 -360 692 -399 750 -433 33 -19 63 -33 67 -30 13 7
10 1367 -3 1380 -6 6 -16 21 -23 34 -10 20 -303 199 -326 199 -9 0 -729 -412
-771 -441 -20 -14 -25 -24 -21 -49 10 -66 -39 -120 -109 -120 -22 0 -41 10
-66 35 -33 33 -35 39 -30 78 l6 43 -207 119 c-114 65 -291 168 -393 227 -102
59 -192 108 -200 107 -8 0 -41 -17 -74 -37z"/>
<path d="M12645 7828 c-140 -81 -145 -85 -145 -121 0 -42 -24 -75 -66 -93
l-34 -14 0 -145 c0 -79 3 -146 8 -148 4 -3 63 28 132 68 l125 72 0 53 c0 48 3
55 38 84 l37 31 0 128 c0 95 -3 127 -12 127 -7 -1 -44 -19 -83 -42z"/>
<path d="M12120 7526 l-195 -113 0 -71 c0 -62 -4 -75 -30 -113 -43 -61 -87
-84 -160 -84 -52 0 -67 5 -109 34 l-49 34 -31 -18 c-17 -10 -71 -42 -121 -71
-121 -70 -799 -461 -1222 -703 -215 -123 -342 -201 -340 -210 2 -11 158 -106
467 -281 36 -20 207 -119 380 -219 271 -157 321 -183 360 -184 40 -2 63 8 205
89 l160 92 3 461 2 461 -25 6 c-40 10 -75 59 -75 106 0 83 98 129 164 77 15
-11 33 -19 40 -16 8 3 148 83 313 178 164 95 337 195 386 223 l87 50 0 188 c0
103 -3 189 -8 192 -4 2 -95 -46 -202 -108z"/>
<path d="M13206 7633 c-3 -3 -6 -90 -6 -193 l0 -186 133 -76 c72 -42 246 -142
386 -223 140 -81 261 -149 268 -152 7 -3 24 5 39 16 68 53 164 6 164 -81 0
-35 -6 -49 -27 -70 -16 -14 -38 -29 -51 -33 l-22 -6 2 -461 3 -460 160 -92
c142 -81 165 -91 205 -89 44 2 152 60 740 402 167 98 263 153 360 209 58 33
106 66 107 73 2 9 -105 76 -280 176 -315 180 -721 414 -1145 659 -156 90 -285
164 -287 164 -2 0 -24 -13 -48 -30 -53 -35 -108 -46 -165 -30 -89 23 -159 136
-135 215 9 28 8 36 -6 48 -12 10 -242 144 -382 223 -3 2 -9 1 -13 -3z"/>
<path d="M12695 7386 c-11 -7 -65 -39 -120 -71 -55 -32 -117 -68 -137 -81
l-38 -24 0 -455 0 -455 34 -14 c70 -29 89 -110 39 -166 -39 -43 -87 -49 -134
-17 l-37 25 -308 -178 c-170 -98 -347 -200 -394 -227 l-85 -49 -3 -187 c-3
-248 -17 -227 245 -379 212 -124 698 -404 773 -446 25 -14 78 -44 117 -68 40
-24 77 -44 83 -44 7 0 10 329 10 1000 l0 1001 -32 6 c-46 9 -112 79 -126 134
-25 98 25 188 126 228 l32 13 0 234 c0 247 0 249 -45 220z"/>
<path d="M12792 7163 l3 -237 27 -7 c77 -20 131 -97 130 -185 -1 -83 -48 -148
-127 -174 l-35 -12 0 -999 c0 -588 4 -999 9 -999 5 0 80 41 168 92 87 50 334
192 548 316 215 124 406 235 426 246 21 11 45 38 58 61 20 38 21 52 19 225
l-3 184 -50 29 c-27 16 -171 99 -320 185 -148 85 -302 174 -342 198 l-72 44
-38 -26 c-29 -20 -46 -24 -73 -20 -49 8 -90 55 -90 104 0 46 19 74 65 96 l35
17 -2 457 -3 457 -100 59 c-55 32 -125 74 -157 92 -31 19 -61 34 -67 34 -8 0
-11 -67 -9 -237z"/>
<path d="M12025 7000 c-159 -93 -329 -192 -378 -220 -62 -37 -95 -62 -112 -90
l-25 -40 0 -445 c0 -245 4 -445 9 -445 4 0 116 62 247 139 131 76 302 174 379
218 79 46 145 90 151 103 7 12 17 27 23 33 13 13 16 918 4 916 -5 0 -138 -77
-298 -169z"/>
<path d="M13200 6724 l0 -445 25 -42 c21 -36 48 -56 207 -146 101 -58 270
-156 377 -218 107 -62 198 -113 203 -113 4 0 8 199 8 443 0 431 0 443 -21 482
-19 35 -44 53 -188 136 -473 275 -602 349 -606 349 -3 0 -5 -201 -5 -446z"/>
<path d="M16050 2327 l0 -283 -50 47 c-137 133 -395 112 -536 -44 -141 -156
-175 -437 -79 -641 38 -80 114 -159 189 -196 157 -77 360 -35 460 96 l34 44 6
-31 c3 -18 6 -53 6 -80 l0 -49 81 0 82 0 -7 37 c-3 21 -6 341 -6 711 l0 672
-90 0 -90 0 0 -283z m-155 -306 c60 -27 101 -66 129 -123 25 -50 26 -60 26
-218 0 -159 -1 -168 -26 -218 -44 -88 -143 -152 -234 -152 -100 0 -198 69
-246 173 -27 58 -29 70 -29 187 1 144 19 206 82 280 71 83 203 115 298 71z"/>
<path d="M7985 2545 c-151 -28 -251 -80 -357 -185 -122 -122 -183 -267 -195
-465 -17 -297 106 -538 332 -650 115 -57 180 -70 345 -69 101 0 166 6 215 17
72 18 125 36 125 44 0 2 -7 33 -16 69 -14 53 -20 64 -33 59 -98 -40 -298 -57
-404 -36 -90 19 -188 74 -246 136 -93 103 -131 217 -131 395 0 191 46 316 154
419 62 58 152 105 235 122 83 17 272 6 344 -19 l58 -21 9 23 c17 47 31 107 25
115 -8 15 -93 40 -170 51 -93 13 -204 11 -290 -5z"/>
<path d="M11575 2416 l-80 -21 -3 -117 -3 -118 -74 0 -75 0 0 -65 0 -64 73 -3
72 -3 5 -335 5 -335 28 -58 c47 -96 126 -133 261 -124 117 7 117 8 114 81 l-3
61 -67 1 c-82 1 -119 16 -144 57 -18 30 -19 56 -22 345 l-3 312 125 0 126 0 0
65 0 65 -125 0 -124 0 -3 138 -3 139 -80 -21z"/>
<path d="M8996 2164 c-58 -18 -132 -88 -162 -154 l-21 -44 -8 97 -7 97 -74 0
-74 0 0 -485 0 -485 89 0 90 0 3 309 3 308 35 69 c48 94 95 127 190 132 l70 4
0 84 0 84 -42 -1 c-24 0 -65 -7 -92 -15z"/>
<path d="M10707 2170 c-81 -21 -182 -87 -214 -141 -10 -16 -21 -29 -25 -29 -4
0 -8 36 -8 80 l0 80 -80 0 -80 0 0 -685 0 -685 90 0 90 0 0 265 0 265 40 -44
c24 -25 66 -55 103 -72 55 -25 73 -29 162 -29 92 0 106 3 167 32 132 62 220
180 252 335 55 266 -40 511 -234 602 -52 24 -79 30 -145 32 -44 2 -97 -1 -118
-6z m168 -158 c56 -28 99 -77 132 -147 23 -51 28 -76 31 -168 4 -91 1 -118
-18 -177 -41 -128 -142 -210 -261 -210 -111 0 -192 47 -244 141 -28 51 -30 62
-33 186 -4 149 8 209 57 283 73 109 224 150 336 92z"/>
<path d="M12381 2164 c-218 -58 -351 -247 -351 -499 0 -327 251 -544 561 -485
184 35 324 177 365 368 63 299 -85 566 -344 621 -71 15 -165 13 -231 -5z m237
-143 c223 -115 227 -563 6 -683 -169 -91 -346 4 -400 214 -22 84 -15 221 16
301 30 81 100 153 170 178 66 23 151 19 208 -10z"/>
<path d="M13560 2165 c-72 -21 -144 -68 -186 -123 l-34 -45 0 50 c0 28 -3 65
-6 82 l-6 31 -74 0 -74 0 0 -485 0 -485 90 0 90 0 0 313 c0 255 3 322 15 358
35 102 128 169 234 169 96 0 149 -31 194 -115 21 -38 22 -54 25 -382 l3 -343
89 0 90 0 0 318 c0 326 -6 398 -40 478 -27 63 -101 138 -162 164 -67 29 -175
35 -248 15z"/>
<path d="M14581 2164 c-218 -58 -351 -247 -351 -499 0 -327 251 -544 561 -485
184 35 324 177 365 368 63 299 -85 566 -344 621 -71 15 -165 13 -231 -5z m237
-143 c223 -115 227 -563 6 -683 -169 -91 -346 4 -400 214 -22 84 -15 221 16
301 30 81 100 153 170 178 66 23 151 19 208 -10z"/>
<path d="M16807 2170 c-209 -53 -347 -254 -347 -505 0 -320 208 -513 529 -492
97 6 220 32 246 51 16 11 16 18 4 70 -11 51 -15 57 -33 51 -105 -30 -159 -37
-256 -33 -89 3 -113 8 -156 30 -91 47 -147 132 -160 241 l-7 57 339 2 339 3 3
60 c7 138 -46 292 -129 372 -67 64 -144 95 -248 99 -47 2 -103 -1 -124 -6z
m198 -139 c22 -10 50 -29 62 -42 31 -34 63 -111 70 -169 l6 -50 -257 0 -258 0
7 33 c21 99 88 194 160 228 54 25 156 25 210 0z"/>
<path d="M17710 2166 c-60 -17 -84 -31 -132 -74 -50 -45 -78 -100 -85 -166
-14 -140 77 -241 291 -322 105 -39 155 -122 125 -208 -35 -101 -195 -125 -352
-53 l-54 24 -21 -65 c-25 -77 -28 -72 73 -105 100 -32 265 -31 349 3 146 57
220 210 171 351 -32 91 -94 142 -248 206 -55 23 -106 52 -129 74 -33 31 -38
42 -38 82 0 37 6 53 31 82 53 60 146 69 263 24 28 -10 54 -19 57 -19 3 0 14
27 24 61 16 52 17 62 4 70 -59 38 -248 59 -329 35z"/>
<path d="M9259 2113 c10 -26 92 -230 181 -453 90 -223 165 -415 167 -427 14
-64 -141 -255 -249 -307 -32 -16 -58 -33 -58 -40 0 -6 8 -38 19 -71 21 -71 30
-73 131 -22 130 65 236 202 339 437 40 93 290 736 347 893 l13 37 -94 0 -93 0
-128 -385 -128 -385 -28 92 c-15 51 -76 224 -136 383 l-107 290 -98 3 -97 3
19 -48z"/>
</g>
</svg>
