<?xml version="1.0" standalone="no"?>
<!DOCTYPE svg PUBLIC "-//W3C//DTD SVG 20010904//EN"
 "http://www.w3.org/TR/2001/REC-SVG-20010904/DTD/svg10.dtd">
<svg version="1.0" xmlns="http://www.w3.org/2000/svg"
 width="128.000000pt" height="128.000000pt" viewBox="0 0 128.000000 128.000000"
 preserveAspectRatio="xMidYMid meet">
<metadata>
Created by potrace 1.16, written by Peter Selinger 2001-2019
</metadata>
<g transform="translate(0.000000,128.000000) scale(0.100000,-0.100000)"
fill="#FFFFFF" stroke="none">
<path d="M397 1234 c-4 -4 -7 -52 -7 -106 l0 -98 -59 0 c-33 0 -62 -4 -65 -8
-3 -5 -16 -76 -31 -159 -23 -140 -25 -174 -25 -469 0 -176 4 -325 8 -332 7
-10 99 -12 428 -10 l419 3 3 335 c3 305 1 347 -19 475 -12 77 -26 146 -32 153
-6 7 -33 12 -68 12 l-58 0 -3 103 -3 102 -241 3 c-132 1 -243 -1 -247 -4z
m443 -199 l0 -145 -195 0 -195 0 0 145 0 145 195 0 195 0 0 -145z m-450 -105
c0 -34 -3 -40 -21 -40 -15 0 -20 -5 -17 -22 l3 -23 290 0 c283 0 290 0 290 20
0 13 -8 21 -22 23 -19 3 -23 10 -23 43 l0 39 43 0 44 0 12 -82 c7 -46 15 -93
18 -105 l5 -23 -366 0 c-342 0 -366 1 -366 18 0 9 7 55 15 102 8 47 15 86 15
88 0 1 18 2 40 2 l40 0 0 -40z m630 -525 l0 -305 -375 0 -375 0 0 305 0 305
375 0 375 0 0 -305z"/>
<path d="M583 640 c-57 -34 -70 -94 -30 -134 l23 -23 -23 -27 c-50 -59 -19
-120 78 -151 102 -33 124 -64 73 -104 -38 -30 -80 -27 -116 9 -47 47 -79 34
-42 -18 34 -49 109 -66 164 -37 61 32 79 97 37 139 l-23 23 23 27 c50 59 19
120 -78 151 -102 33 -124 64 -73 104 38 30 80 27 116 -9 47 -47 79 -34 42 18
-36 52 -115 67 -171 32z"/>
</g>
</svg>
