<?xml version="1.0" standalone="no"?>
<!DOCTYPE svg PUBLIC "-//W3C//DTD SVG 20010904//EN"
 "http://www.w3.org/TR/2001/REC-SVG-20010904/DTD/svg10.dtd">
<svg version="1.0" xmlns="http://www.w3.org/2000/svg"
 width="2481.000000pt" height="570.000000pt" viewBox="0 0 2481.000000 570.000000"
 preserveAspectRatio="xMidYMid meet">

<g transform="translate(0.000000,570.000000) scale(0.100000,-0.100000)"
fill="#000000" stroke="none">
<path d="M2550 5679 c-251 -34 -386 -64 -618 -140 -402 -131 -754 -345 -1065
-648 -258 -252 -434 -495 -587 -813 -221 -462 -310 -936 -271 -1460 63 -855
526 -1646 1246 -2128 363 -243 756 -391 1225 -462 133 -20 617 -17 755 5 500
79 922 255 1319 550 150 112 421 380 531 527 304 403 495 852 570 1337 39 249
27 689 -24 939 -81 391 -221 730 -435 1049 -191 286 -488 582 -775 774 -339
226 -740 384 -1126 445 -204 32 -593 45 -745 25z m360 -104 c65 -34 80 -111
35 -178 -14 -20 -30 -37 -35 -37 -23 0 -40 -34 -40 -81 0 -68 50 -161 110
-205 59 -43 434 -262 567 -331 96 -49 109 -53 149 -47 35 5 49 3 64 -11 31
-28 26 -75 -10 -107 -29 -25 -30 -29 -30 -112 0 -56 4 -86 11 -86 6 0 42 16
80 36 57 30 70 42 80 73 14 44 46 81 70 81 22 0 69 -55 69 -80 0 -26 65 -69
355 -235 344 -198 357 -204 447 -197 119 8 168 44 168 122 0 37 51 96 90 105
69 15 150 -45 150 -111 0 -47 -23 -88 -63 -113 -41 -25 -62 -26 -110 -6 -20 8
-47 15 -60 15 -33 0 -105 -54 -113 -85 -3 -14 -19 -35 -35 -46 l-30 -21 3
-423 3 -423 28 -22 c34 -27 37 -78 7 -105 -19 -17 -26 -18 -67 -7 -43 12 -47
11 -108 -22 -85 -48 -93 -59 -58 -84 69 -48 112 -63 163 -56 62 8 90 -11 90
-62 0 -25 -7 -38 -30 -54 l-30 -21 0 -418 0 -418 28 -30 c15 -16 34 -43 43
-60 9 -17 37 -43 62 -58 l46 -26 40 20 c51 27 95 27 138 0 125 -77 5 -269
-130 -208 -32 14 -56 57 -63 113 -4 25 -15 53 -25 62 -29 26 -90 43 -156 44
-73 0 -115 -20 -460 -221 -269 -156 -315 -188 -324 -223 -24 -87 -113 -89
-134 -3 -8 31 -44 63 -122 108 l-53 29 0 -89 c0 -86 1 -92 30 -124 64 -73 31
-136 -64 -120 -40 6 -104 -24 -376 -180 -225 -129 -341 -201 -362 -224 -10
-10 -31 -44 -48 -76 -23 -43 -30 -70 -30 -112 0 -50 2 -56 29 -70 95 -49 96
-171 1 -220 -81 -42 -170 16 -170 111 0 43 15 65 83 121 37 30 39 108 3 150
-14 16 -28 41 -31 56 -10 36 -61 72 -315 219 -367 212 -399 228 -457 225 -42
-2 -56 2 -77 22 -33 31 -33 46 4 88 29 32 30 38 30 123 0 50 -3 90 -6 90 -11
0 -108 -61 -131 -83 -13 -11 -23 -30 -23 -41 0 -29 -39 -66 -71 -66 -30 0 -69
40 -69 71 0 23 -63 66 -295 201 -351 205 -423 241 -474 240 -101 -4 -177 -36
-187 -80 -17 -80 -30 -107 -63 -129 -36 -24 -98 -31 -131 -13 -28 15 -60 73
-60 110 0 88 104 149 180 105 14 -8 37 -14 51 -15 32 0 88 41 115 85 11 19 29
44 40 56 18 20 19 40 19 441 l0 420 -27 20 c-34 24 -38 76 -9 102 21 19 38 21
91 12 29 -6 48 1 113 37 l77 43 -72 41 c-84 48 -90 50 -141 39 -81 -16 -118
56 -59 117 l27 28 0 420 0 421 -28 20 c-15 11 -27 25 -27 32 0 24 -43 68 -83
86 -38 17 -41 17 -84 -2 -76 -33 -149 -4 -173 68 -34 102 68 194 165 148 47
-22 63 -47 72 -114 7 -47 12 -56 41 -73 20 -12 65 -23 110 -28 74 -7 80 -7
149 26 78 36 489 272 590 338 48 31 66 50 74 77 16 50 27 60 63 60 43 0 66
-19 75 -60 5 -29 18 -43 71 -77 35 -24 70 -43 77 -43 10 0 13 24 13 91 0 87
-1 92 -30 121 -38 37 -38 60 0 91 26 23 33 24 69 15 38 -10 46 -7 148 47 149
78 508 288 566 331 26 19 53 47 60 62 6 15 22 42 34 61 16 23 23 48 23 80 0
55 -5 63 -47 85 -38 19 -63 62 -63 106 0 93 96 149 180 105z"/>
<path d="M2544 4912 c-334 -191 -490 -290 -503 -319 -6 -13 -11 -77 -11 -141
l0 -118 203 -116 c288 -165 298 -170 355 -162 40 5 50 3 66 -15 29 -32 25 -78
-9 -105 l-29 -23 -4 -295 -4 -294 101 -58 c56 -33 108 -56 116 -52 12 4 15 29
15 139 0 142 -2 149 -52 180 -87 54 -74 177 21 217 l31 12 0 582 c0 597 -4
716 -24 716 -7 0 -129 -67 -272 -148z"/>
<path d="M2875 5028 c-3 -18 -5 -307 -3 -643 l3 -610 48 -47 c42 -42 47 -52
47 -92 0 -49 -27 -90 -74 -115 l-26 -14 0 -149 c0 -112 3 -148 13 -148 6 0 55
24 107 54 l95 53 3 298 2 299 -30 27 c-35 32 -40 77 -12 102 13 12 34 16 78
14 58 -2 62 0 224 92 91 52 202 116 248 143 l82 49 0 103 c0 152 0 153 -148
245 -242 150 -627 371 -646 371 -3 0 -8 -15 -11 -32z"/>
<path d="M1599 4362 c-225 -118 -630 -359 -636 -379 -5 -15 848 -518 1043
-614 l65 -32 53 18 c62 21 92 16 135 -24 26 -24 31 -37 31 -73 0 -24 6 -52 13
-61 6 -9 67 -47 135 -86 l123 -70 -3 131 -3 130 -170 100 c-93 54 -205 117
-249 139 -70 36 -84 40 -126 34 -41 -6 -52 -3 -69 14 -28 28 -26 67 4 103 l25
30 0 298 0 298 -87 48 c-127 69 -145 69 -284 -4z"/>
<path d="M3843 4380 c-126 -66 -113 -26 -120 -361 l-6 -294 36 -37 c21 -20 37
-44 37 -53 0 -27 -57 -78 -78 -70 -62 27 -74 22 -377 -153 l-190 -111 -3 -120
c-2 -81 1 -121 8 -121 17 0 108 48 183 96 59 38 67 47 67 74 0 44 35 107 70
125 40 20 71 19 123 -6 l44 -22 394 228 c551 319 710 416 706 428 -4 13 -153
105 -432 265 -240 138 -310 172 -352 172 -17 0 -67 -18 -110 -40z"/>
<path d="M3491 4179 c-242 -140 -328 -198 -340 -228 -16 -42 -24 -258 -16
-432 l7 -159 87 45 c114 61 378 220 416 250 l30 25 3 277 c2 153 0 288 -5 300
-8 21 -15 18 -182 -78z"/>
<path d="M2032 3974 l3 -296 30 -27 c29 -25 278 -178 417 -255 l67 -37 6 24
c4 14 5 149 3 300 -2 215 -6 278 -17 291 -21 25 -480 296 -502 296 -6 0 -9
-102 -7 -296z"/>
<path d="M925 3845 c-11 -145 -1 -796 12 -820 6 -10 57 -47 113 -81 l101 -62
192 110 c282 161 314 183 328 226 17 53 27 62 69 62 42 0 52 -9 69 -60 13 -42
47 -66 327 -227 l191 -110 99 58 c54 32 100 62 102 67 3 11 -95 75 -188 122
l-65 33 -37 -22 c-44 -25 -69 -26 -112 -6 -40 19 -66 62 -75 123 l-6 47 -550
317 c-303 174 -553 317 -557 318 -3 0 -9 -43 -13 -95z"/>
<path d="M4399 3732 c-450 -258 -677 -393 -718 -428 -19 -16 -31 -35 -31 -51
0 -38 -27 -87 -59 -106 -39 -23 -98 -24 -140 -3 l-33 18 -72 -38 c-39 -20 -98
-54 -130 -74 l-59 -38 24 -15 c13 -9 62 -38 108 -65 l84 -49 226 129 c262 150
286 167 296 205 8 35 43 73 66 73 22 0 69 -55 69 -80 0 -27 37 -52 290 -197
l225 -129 87 50 c153 89 141 72 149 227 14 271 7 779 -11 779 -4 0 -171 -94
-371 -208z"/>
<path d="M2610 3198 c0 -81 14 -129 45 -158 14 -13 25 -29 25 -36 0 -16 62
-69 110 -94 l40 -20 6 25 c11 45 -1 146 -18 156 -9 5 -22 26 -28 47 -7 20 -22
47 -33 60 -22 23 -119 82 -137 82 -6 0 -10 -27 -10 -62z"/>
<path d="M2999 3218 c-34 -24 -66 -50 -70 -58 -4 -8 -12 -26 -18 -40 -7 -14
-18 -36 -26 -50 -19 -32 -21 -170 -2 -170 27 0 120 63 135 92 10 17 29 45 45
61 25 28 27 36 27 118 0 70 -3 89 -14 89 -8 0 -42 -19 -77 -42z"/>
<path d="M1608 3087 c-126 -65 -353 -198 -376 -221 -11 -11 -2 -20 50 -53 90
-57 258 -152 366 -209 l92 -48 57 28 c73 36 263 144 376 213 74 46 87 58 75
69 -39 38 -434 261 -495 278 -15 5 -57 -11 -145 -57z"/>
<path d="M3845 3099 c-107 -55 -276 -153 -349 -202 -56 -38 -58 -40 -40 -57
22 -22 235 -144 391 -225 l111 -58 111 57 c139 71 371 203 391 223 13 13 12
17 -12 38 -86 75 -439 265 -490 265 -18 0 -69 -19 -113 -41z"/>
<path d="M2456 2904 l-70 -47 25 -19 c13 -11 45 -31 71 -44 44 -22 53 -23 131
-15 69 7 95 14 140 42 31 18 54 36 51 40 -2 4 -29 22 -60 40 -39 22 -72 32
-107 34 -29 2 -65 6 -82 10 -25 5 -42 -2 -99 -41z"/>
<path d="M3136 2943 c-4 -4 -33 -8 -66 -9 -48 -1 -70 -8 -115 -35 -30 -18 -55
-38 -55 -45 0 -6 28 -25 63 -42 87 -42 190 -51 250 -21 52 27 97 58 97 68 0 8
-116 76 -146 85 -11 3 -24 3 -28 -1z"/>
<path d="M4344 2714 c-253 -146 -299 -177 -315 -217 -18 -47 -39 -67 -69 -67
-31 0 -56 23 -65 63 -4 15 -22 39 -39 52 -35 27 -350 211 -428 251 l-50 25
-61 -29 c-77 -36 -147 -79 -147 -91 0 -15 224 -141 249 -141 12 0 31 5 42 11
30 16 92 13 127 -5 39 -20 62 -62 62 -113 l0 -39 198 -114 c526 -304 906 -520
917 -520 17 0 25 187 25 565 0 260 -2 314 -15 332 -16 23 -125 98 -191 131
l-40 20 -200 -114z"/>
<path d="M1049 2770 c-133 -80 -121 -45 -126 -366 -2 -154 -1 -359 4 -456 l8
-178 555 320 555 320 11 60 c12 70 33 96 85 110 29 8 48 7 81 -5 24 -8 52 -15
63 -15 22 0 214 109 234 133 10 13 0 23 -70 66 -45 27 -94 53 -110 56 -23 5
-62 -13 -231 -110 -248 -143 -292 -173 -296 -206 -5 -35 -41 -69 -73 -69 -30
0 -69 40 -69 71 0 23 -37 50 -190 142 -167 99 -313 177 -332 177 -8 0 -53 -23
-99 -50z"/>
<path d="M2770 2794 c-55 -31 -90 -63 -90 -82 0 -7 -13 -27 -29 -43 -35 -34
-45 -85 -36 -164 l7 -56 47 27 c75 43 108 72 115 98 3 14 18 42 32 63 22 32
24 46 22 107 -2 38 -7 71 -13 73 -5 1 -30 -9 -55 -23z"/>
<path d="M2870 2739 c0 -72 3 -84 25 -111 14 -16 25 -40 25 -53 0 -15 12 -33
33 -48 36 -28 111 -67 127 -67 6 0 10 33 10 85 0 82 -1 86 -30 112 -16 14 -30
32 -30 38 0 23 -41 64 -94 94 -29 17 -56 31 -60 31 -3 0 -6 -36 -6 -81z"/>
<path d="M2413 2588 l-123 -71 0 -48 c0 -91 -78 -142 -167 -110 -53 19 -70 14
-236 -78 -298 -166 -937 -540 -937 -550 0 -12 580 -347 731 -421 l65 -32 74
37 c41 20 91 48 112 62 l39 24 -3 302 -3 302 -27 29 c-36 37 -35 58 2 89 26
22 33 24 68 15 35 -9 46 -6 109 26 115 57 417 235 431 253 19 26 13 245 -7
242 -3 -1 -61 -33 -128 -71z"/>
<path d="M3135 2598 c-4 -35 -5 -89 -3 -122 l3 -59 180 -104 c285 -165 327
-185 383 -178 56 7 69 0 82 -44 8 -31 6 -36 -23 -64 l-32 -30 -3 -296 -3 -297
73 -41 c40 -23 94 -52 119 -64 l47 -22 118 63 c141 74 532 296 622 353 61 38
62 40 42 54 -41 29 -970 563 -1049 603 -33 16 -53 20 -80 15 -102 -18 -115
-17 -151 7 -42 28 -60 61 -60 108 0 31 -6 39 -47 66 -53 35 -196 114 -206 114
-3 0 -8 -28 -12 -62z"/>
<path d="M2710 2447 l-95 -52 -3 -294 -2 -295 36 -37 c29 -30 35 -42 30 -63
-9 -36 -61 -62 -94 -46 -23 10 -36 6 -106 -29 -45 -22 -162 -87 -261 -143
l-180 -104 -3 -99 c-2 -55 0 -119 3 -142 6 -41 9 -44 118 -111 129 -79 499
-292 602 -346 l70 -37 7 43 c3 24 7 316 7 649 l1 607 -30 12 c-103 43 -105
171 -3 235 l32 20 1 127 c0 131 -4 158 -24 158 -6 0 -54 -24 -106 -53z"/>
<path d="M2870 2356 l0 -144 35 -26 c73 -56 86 -132 33 -189 -18 -19 -40 -36
-48 -39 -13 -4 -15 -86 -18 -644 -1 -359 2 -645 7 -653 7 -10 57 14 232 114
333 191 501 293 533 325 28 27 30 35 34 117 7 160 14 150 -193 270 -276 160
-304 173 -368 170 -65 -2 -87 12 -87 58 0 25 7 39 30 57 l30 24 -2 298 -3 299
-95 54 c-52 29 -101 53 -107 53 -10 0 -13 -35 -13 -144z"/>
<path d="M3135 2240 c-4 -65 -3 -201 1 -301 6 -154 10 -185 24 -199 22 -22
359 -224 447 -268 l62 -32 6 53 c9 69 1 517 -9 539 -10 22 -356 240 -492 311
l-31 16 -8 -119z"/>
<path d="M2353 2242 c-265 -156 -301 -181 -313 -215 -12 -35 -14 -573 -2 -581
14 -9 474 265 502 299 24 29 26 606 2 605 -4 -1 -89 -49 -189 -108z"/>
<path d="M21773 3798 c-4 -7 -9 -163 -11 -346 l-3 -332 -47 38 c-68 55 -110
71 -223 84 -125 14 -208 2 -299 -44 -198 -101 -314 -284 -340 -541 -31 -310
96 -599 310 -704 83 -41 136 -52 235 -53 151 0 265 48 356 149 54 60 55 60 62
-38 3 -35 10 -68 17 -75 7 -7 73 -12 187 -14 l176 -3 -7 23 c-4 13 -10 438
-13 946 l-6 922 -193 0 c-143 0 -195 -3 -201 -12z m-145 -882 c105 -53 124
-99 130 -308 3 -102 0 -174 -7 -204 -45 -180 -248 -243 -387 -121 -87 76 -122
197 -103 350 21 166 75 254 181 297 46 18 136 11 186 -14z"/>
<path d="M10400 3734 c-147 -30 -282 -79 -383 -141 -78 -47 -198 -161 -250
-237 -49 -73 -110 -202 -132 -281 -25 -88 -32 -414 -12 -512 31 -145 117 -304
222 -409 125 -125 262 -196 455 -236 128 -27 415 -21 563 11 83 17 137 35 137
44 0 26 -57 295 -65 305 -1 1 -42 -7 -91 -19 -128 -30 -281 -36 -378 -15 -167
38 -309 141 -369 268 -54 113 -62 154 -61 298 1 212 41 327 154 441 72 73 155
118 255 139 119 26 352 11 457 -29 20 -7 29 -7 38 3 6 8 27 78 47 156 31 119
34 143 22 151 -19 12 -100 35 -174 49 -62 12 -391 22 -435 14z"/>
<path d="M15560 3559 c-91 -21 -175 -41 -187 -44 -23 -5 -23 -8 -23 -145 l0
-139 -87 -3 -88 -3 0 -145 0 -145 80 -3 c48 -2 82 -8 87 -15 4 -7 8 -118 8
-247 0 -409 16 -530 81 -622 33 -45 134 -116 192 -133 61 -18 286 -21 347 -5
51 14 60 42 60 196 l0 124 -94 0 c-79 0 -97 3 -120 21 -59 46 -61 57 -64 382
l-4 297 146 0 146 0 0 150 0 150 -145 0 -145 0 0 124 c0 131 -9 247 -19 245
-3 0 -80 -18 -171 -40z"/>
<path d="M11865 3236 c-102 -32 -156 -75 -228 -180 l-42 -61 -5 115 -5 115
-180 0 c-155 0 -179 -2 -175 -15 2 -8 6 -302 8 -652 l4 -638 142 0 c79 0 170
3 203 6 l60 7 8 396 7 395 35 43 c23 27 59 55 101 75 61 30 75 33 154 32 l88
-1 0 189 0 188 -67 -1 c-38 0 -86 -6 -108 -13z"/>
<path d="M14350 3235 c-91 -22 -144 -50 -219 -115 -40 -34 -74 -60 -77 -57 -2
2 -7 41 -11 86 l-6 81 -180 0 -180 0 7 -61 c3 -34 6 -448 6 -920 l0 -859 205
0 205 0 1 203 c1 111 4 253 8 315 l6 112 55 -38 c82 -58 132 -74 243 -80 179
-9 294 35 420 159 64 64 84 92 121 170 62 133 79 210 79 354 0 169 -35 304
-108 420 -40 63 -135 151 -203 188 -94 51 -258 70 -372 42z m132 -341 c91 -63
141 -178 141 -324 0 -146 -50 -261 -141 -325 -40 -27 -51 -30 -120 -30 -67 0
-84 4 -131 30 -31 18 -67 48 -85 73 l-31 44 -3 166 c-5 214 4 255 66 323 58
62 104 80 194 76 56 -2 74 -8 110 -33z"/>
<path d="M16720 3235 c-90 -18 -174 -49 -238 -87 -75 -46 -184 -165 -220 -241
-62 -133 -67 -157 -67 -347 1 -164 2 -179 27 -242 78 -205 232 -342 448 -399
313 -82 662 58 793 318 133 263 101 586 -79 799 -141 167 -415 249 -664 199z
m236 -294 c54 -24 107 -89 135 -164 21 -55 24 -79 24 -207 0 -127 -3 -152 -23
-201 -93 -231 -344 -241 -446 -19 -67 146 -52 392 30 512 26 37 85 82 120 91
44 11 121 6 160 -12z"/>
<path d="M18428 3231 c-76 -24 -134 -60 -202 -122 -31 -28 -59 -49 -63 -46 -3
3 -8 41 -12 84 l-6 78 -180 0 c-155 0 -179 -2 -175 -15 2 -8 6 -302 8 -652 l4
-638 142 0 c79 0 170 3 203 6 l60 7 7 386 c4 212 11 409 15 437 13 95 81 152
189 161 61 5 75 3 106 -17 20 -12 48 -37 62 -56 25 -33 26 -40 35 -236 4 -112
8 -309 8 -439 l1 -236 68 -6 c37 -4 129 -7 206 -7 l138 0 -5 448 c-5 486 -10
531 -64 642 -32 66 -97 138 -164 180 -86 56 -272 76 -381 41z"/>
<path d="M19848 3240 c-272 -49 -450 -203 -528 -455 -18 -58 -21 -94 -21 -215
0 -170 12 -225 73 -343 184 -353 699 -442 1040 -180 98 75 157 161 204 298 26
73 28 93 29 225 0 125 -3 155 -23 220 -72 229 -223 376 -447 436 -70 18 -259
27 -327 14z m217 -299 c89 -40 142 -142 156 -294 17 -200 -20 -334 -114 -408
-52 -42 -95 -54 -162 -47 -93 11 -161 72 -206 185 -20 50 -23 77 -23 188 -1
173 22 254 94 326 26 26 63 52 81 58 55 15 131 12 174 -8z"/>
<path d="M22936 3239 c-64 -13 -159 -57 -235 -108 -251 -171 -347 -598 -201
-896 63 -130 175 -234 310 -288 159 -63 493 -64 692 -1 l81 26 -6 61 c-8 80
-26 180 -36 195 -6 10 -24 9 -82 -4 -41 -8 -128 -18 -195 -21 -196 -9 -305 20
-386 104 -38 39 -74 110 -63 122 4 3 193 7 421 9 l414 4 4 21 c14 68 16 126 6
220 -12 120 -37 206 -85 292 -101 183 -244 264 -475 271 -63 2 -137 -1 -164
-7z m246 -294 c46 -32 92 -110 103 -176 6 -32 4 -37 -17 -42 -37 -11 -404 -8
-432 3 -22 8 -24 13 -17 37 14 49 58 127 88 155 68 65 198 76 275 23z"/>
<path d="M24285 3244 c-262 -41 -432 -228 -412 -451 8 -84 39 -143 107 -206
71 -66 115 -92 257 -152 139 -58 187 -96 187 -150 0 -31 -6 -43 -34 -66 -64
-54 -197 -52 -366 6 -62 21 -110 33 -115 28 -12 -12 -57 -190 -61 -240 l-3
-38 70 -23 c111 -38 207 -52 343 -52 146 0 222 15 331 67 87 41 162 111 194
181 19 40 22 65 22 167 0 143 -13 176 -103 262 -54 53 -99 78 -307 173 -108
49 -135 72 -135 115 0 104 132 131 340 71 61 -18 87 -21 92 -13 14 24 69 237
63 247 -11 18 -58 37 -130 53 -71 16 -285 29 -340 21z"/>
<path d="M12170 3222 c0 -6 83 -219 184 -474 210 -530 296 -758 296 -788 0
-36 -26 -74 -94 -137 -60 -57 -207 -143 -242 -143 -8 0 -14 -6 -14 -14 0 -19
58 -244 76 -293 18 -49 18 -49 132 -7 112 41 202 95 278 167 173 162 289 401
547 1127 64 179 134 376 156 438 36 102 38 114 23 120 -9 4 -107 7 -216 7
l-200 0 -106 -433 c-59 -237 -109 -434 -111 -437 -3 -2 -33 93 -67 213 -34
119 -92 315 -129 435 l-67 217 -161 0 c-89 0 -190 3 -224 6 -40 5 -61 3 -61
-4z"/>
</g>
</svg>
