<?xml version="1.0" standalone="no"?>
<!DOCTYPE svg PUBLIC "-//W3C//DTD SVG 20010904//EN"
 "http://www.w3.org/TR/2001/REC-SVG-20010904/DTD/svg10.dtd">
<svg version="1.0" xmlns="http://www.w3.org/2000/svg"
 width="512.000000pt" height="512.000000pt" viewBox="0 0 512.000000 512.000000"
 preserveAspectRatio="xMidYMid meet">
<metadata>
Created by potrace 1.16, written by Peter Selinger 2001-2019
</metadata>
<g transform="translate(0.000000,512.000000) scale(0.100000,-0.100000)"
fill="#FFFFFF" stroke="none">
<path d="M422 4937 l-22 -23 0 -2195 0 -2196 23 -21 23 -22 517 0 c504 0 518
1 537 20 29 29 27 90 -3 118 -23 22 -25 22 -480 22 l-457 0 0 2080 0 2080
1600 0 1600 0 0 -858 0 -859 23 -21 c30 -29 89 -30 117 -2 20 20 20 33 20 938
l0 919 -23 21 -23 22 -1715 0 -1716 0 -21 -23z"/>
<path d="M2262 4617 c-22 -23 -22 -24 -22 -520 l0 -497 -80 0 -80 0 0 378 0
379 -23 21 c-22 21 -32 22 -218 22 -191 0 -196 0 -217 -23 -22 -23 -22 -27
-22 -400 l0 -377 -80 0 -80 0 0 218 c0 285 21 262 -241 262 -260 0 -239 23
-239 -263 l0 -217 -98 0 c-90 0 -100 -2 -120 -23 -30 -32 -29 -87 1 -115 l23
-22 1397 0 c1384 0 1397 0 1417 20 29 29 27 90 -3 118 -21 19 -34 22 -120 22
l-97 0 0 378 0 379 -23 21 c-22 21 -32 22 -218 22 -191 0 -196 0 -217 -23 -22
-23 -22 -27 -22 -400 l0 -377 -80 0 -80 0 0 498 0 499 -23 21 c-22 21 -32 22
-218 22 -191 0 -196 0 -217 -23z m298 -577 l0 -440 -80 0 -80 0 0 440 0 440
80 0 80 0 0 -440z m-640 -120 l0 -320 -80 0 -80 0 0 320 0 320 80 0 80 0 0
-320z m1280 0 l0 -320 -80 0 -80 0 0 320 0 320 80 0 80 0 0 -320z m-1920 -160
l0 -160 -80 0 -80 0 0 160 0 160 80 0 80 0 0 -160z"/>
<path d="M2465 3235 c-244 -49 -255 -55 -255 -125 0 -55 24 -70 208 -131 281
-93 351 -133 536 -311 l119 -114 -11 -33 c-17 -48 2 -82 97 -176 l81 -80 -769
-770 c-870 -870 -826 -818 -826 -970 0 -67 4 -89 28 -136 32 -67 99 -132 165
-162 35 -16 68 -21 127 -22 151 0 99 -45 970 826 l770 769 80 -81 c94 -95 133
-117 178 -98 l30 13 108 -112 c182 -189 225 -263 319 -545 29 -87 62 -169 74
-182 30 -34 79 -37 115 -7 18 14 29 57 66 242 37 188 45 244 45 341 0 260 -75
471 -244 683 -25 32 -27 39 -17 66 16 46 0 75 -95 170 l-84 86 51 49 c28 28
57 62 65 77 31 60 26 69 -167 264 -100 100 -194 188 -210 194 -43 18 -76 5
-143 -60 l-62 -59 -79 79 c-94 95 -129 115 -174 99 -28 -10 -35 -8 -67 17
-214 171 -425 245 -693 243 -96 0 -155 -8 -336 -44z m517 -136 c144 -29 281
-92 386 -177 l43 -35 -107 -108 -107 -108 -111 106 c-169 162 -268 232 -405
288 -57 24 -56 30 4 38 66 9 247 6 297 -4z m1115 -1116 l-167 -168 -335 335
-335 335 167 167 168 168 335 -335 335 -335 -168 -167z m3 672 l104 -104 -24
-26 -24 -26 -108 108 -108 107 22 23 c12 13 24 23 27 23 4 0 53 -47 111 -105z
m-1277 -1488 c-417 -417 -770 -765 -785 -773 -15 -8 -49 -14 -75 -14 -74 0
-127 43 -143 117 -19 81 -42 54 778 875 l767 768 107 -107 108 -108 -757 -758z
m1574 710 c57 -84 105 -186 130 -277 14 -50 18 -102 18 -220 0 -202 -6 -217
-49 -118 -53 121 -120 214 -260 356 l-130 132 109 110 c79 79 112 106 121 99
7 -5 34 -42 61 -82z"/>
<path d="M902 2857 c-30 -32 -29 -87 1 -115 21 -20 34 -22 140 -22 104 0 119
2 137 20 29 29 27 90 -3 118 -21 20 -34 22 -138 22 -108 0 -117 -2 -137 -23z"/>
<path d="M1382 2857 c-30 -32 -29 -87 1 -115 l23 -22 517 0 c504 0 518 1 537
20 29 29 27 90 -3 118 l-23 22 -515 0 -516 0 -21 -23z"/>
<path d="M902 2377 c-30 -32 -29 -87 1 -115 l23 -22 957 0 c944 0 957 0 977
20 29 29 27 90 -3 118 l-23 22 -955 0 -956 0 -21 -23z"/>
<path d="M902 1897 c-30 -32 -29 -87 1 -115 l23 -22 757 0 c744 0 757 0 777
20 29 29 27 90 -3 118 l-23 22 -755 0 -756 0 -21 -23z"/>
<path d="M3782 1497 c-22 -23 -22 -26 -22 -440 l0 -417 -528 0 -529 0 -21 -23
c-30 -32 -29 -87 1 -115 l23 -22 587 0 c574 0 587 0 607 20 19 19 20 33 20
498 l0 479 -23 21 c-32 30 -87 29 -115 -1z"/>
<path d="M902 1417 c-30 -32 -29 -87 1 -115 l23 -22 517 0 c504 0 518 1 537
20 29 29 27 90 -3 118 l-23 22 -515 0 -516 0 -21 -23z"/>
</g>
</svg>
