<?xml version="1.0" standalone="no"?>
<!DOCTYPE svg PUBLIC "-//W3C//DTD SVG 20010904//EN"
 "http://www.w3.org/TR/2001/REC-SVG-20010904/DTD/svg10.dtd">
<svg version="1.0" xmlns="http://www.w3.org/2000/svg"
 width="3413.000000pt" height="1734.000000pt" viewBox="0 0 3413.000000 1734.000000"
 preserveAspectRatio="xMidYMid meet">
<metadata>
Created by potrace 1.16, written by Peter Selinger 2001-2019
</metadata>
<g transform="translate(0.000000,1734.000000) scale(0.100000,-0.100000)"
fill="#FFFFFF" stroke="none">
<path d="M5286 14455 c-3 -8 -13 -15 -23 -15 -32 0 -118 -86 -149 -147 -25
-51 -28 -69 -29 -148 0 -72 4 -99 22 -135 25 -52 114 -143 164 -168 l34 -17 3
-89 3 -89 -44 -46 c-51 -54 -67 -88 -67 -141 0 -21 -7 -45 -15 -54 -9 -8 -61
-41 -116 -73 -56 -32 -108 -63 -118 -68 -9 -6 -40 -24 -70 -40 -30 -17 -61
-35 -70 -40 -9 -6 -34 -21 -56 -33 -22 -12 -58 -33 -80 -47 -22 -14 -50 -29
-62 -34 -12 -6 -41 -22 -63 -36 -23 -14 -56 -34 -73 -44 -39 -21 -155 -88
-202 -116 -18 -11 -53 -31 -77 -44 -84 -47 -93 -52 -123 -71 -16 -11 -39 -24
-50 -30 -11 -5 -42 -23 -70 -40 -27 -16 -57 -33 -65 -37 -8 -4 -43 -24 -78
-45 -61 -37 -95 -47 -106 -29 -3 4 -32 14 -64 21 -98 20 -184 -15 -237 -101
-20 -31 -25 -52 -25 -108 0 -61 4 -74 33 -117 17 -27 46 -55 62 -64 17 -8 33
-19 37 -25 11 -15 10 -223 -1 -230 -5 -3 -43 15 -84 40 -41 25 -79 45 -84 45
-5 0 -19 9 -31 20 -18 17 -22 32 -22 77 0 56 -1 58 -58 114 -48 46 -67 57
-104 63 -85 13 -127 -1 -190 -65 -44 -43 -58 -65 -59 -88 -1 -17 -2 -45 -3
-62 -1 -18 -9 -35 -20 -42 -33 -20 -206 -120 -291 -167 -63 -36 -141 -81 -155
-90 -8 -6 -22 -13 -30 -17 -8 -4 -42 -23 -75 -43 -33 -20 -67 -39 -75 -43 -8
-4 -28 -15 -45 -26 -69 -42 -472 -274 -490 -282 -21 -10 -43 -22 -90 -54 -16
-11 -47 -29 -70 -40 -22 -11 -60 -33 -84 -49 -41 -26 -46 -27 -70 -14 -14 8
-47 21 -73 28 -40 10 -54 10 -98 -5 l-52 -17 -51 27 c-116 60 -112 56 -112
116 -2 141 -79 262 -210 329 -60 31 -188 28 -260 -5 -70 -32 -133 -89 -157
-142 -10 -24 -23 -43 -28 -43 -6 0 -10 -48 -10 -114 0 -89 3 -116 15 -126 8
-7 15 -19 15 -27 0 -16 104 -129 134 -145 10 -5 50 -19 88 -29 68 -19 73 -19
142 -3 39 10 88 28 108 41 21 13 44 23 51 23 8 0 51 -21 96 -46 l81 -46 0 -44
c0 -39 6 -51 46 -94 26 -28 53 -50 60 -50 7 0 18 -9 24 -19 7 -13 10 -297 10
-849 l0 -830 -50 -31 c-69 -43 -90 -87 -90 -193 l0 -82 59 -57 c49 -48 67 -59
105 -64 57 -9 106 0 151 26 34 20 35 20 62 2 47 -30 66 -42 116 -68 27 -14 47
-31 44 -38 -5 -16 -168 -115 -190 -116 -9 -1 -25 3 -35 9 -9 5 -36 16 -60 24
-38 12 -49 12 -100 -4 -121 -36 -152 -80 -152 -213 l0 -85 49 -48 c27 -27 58
-57 70 -66 l21 -18 0 -827 c0 -456 -4 -832 -8 -838 -4 -5 -25 -19 -47 -30 -45
-24 -85 -84 -85 -131 0 -42 -13 -55 -104 -109 l-79 -46 -27 26 c-14 14 -33 25
-41 25 -8 0 -24 7 -35 15 -13 10 -46 14 -112 15 -77 0 -100 -4 -142 -24 -76
-37 -124 -79 -150 -135 -13 -28 -27 -51 -32 -51 -11 0 -10 -228 2 -235 5 -3
17 -22 26 -41 20 -43 129 -143 164 -150 14 -4 44 -12 68 -20 56 -18 68 -18
140 5 76 25 97 37 150 86 51 47 72 86 97 178 14 54 15 74 6 93 -14 32 -12 35
41 62 24 13 57 32 73 42 49 32 55 33 74 16 27 -24 129 -21 185 6 44 21 45 21
73 2 15 -10 48 -29 73 -42 25 -12 63 -34 85 -48 22 -13 54 -31 70 -40 17 -8
44 -23 60 -33 54 -33 403 -236 513 -298 31 -18 73 -42 92 -53 19 -11 61 -35
92 -53 32 -18 123 -70 204 -117 80 -47 165 -96 189 -110 57 -33 56 -30 60 -88
7 -97 59 -159 155 -185 59 -17 66 -17 114 -1 97 31 145 87 147 168 0 23 4 49
8 60 7 17 75 62 131 87 14 6 33 17 42 26 10 8 24 13 33 10 12 -5 15 -27 15
-117 l0 -110 -41 -27 c-22 -15 -54 -46 -70 -69 -25 -37 -29 -52 -29 -109 0
-69 15 -110 54 -153 63 -71 193 -89 260 -38 l36 27 33 -24 c33 -26 101 -66
152 -91 17 -9 48 -27 70 -41 22 -13 50 -29 63 -35 20 -9 94 -53 148 -88 10 -7
33 -19 49 -27 17 -9 48 -27 70 -41 22 -13 54 -31 70 -40 17 -8 44 -23 60 -34
17 -11 39 -24 50 -30 11 -5 43 -23 70 -40 28 -16 57 -33 65 -37 15 -7 133 -76
160 -93 8 -6 22 -13 30 -17 8 -3 58 -32 111 -65 53 -32 99 -58 102 -58 3 0 35
-18 69 -40 35 -22 68 -40 74 -40 16 0 24 -24 24 -74 0 -46 14 -71 72 -132 l39
-41 -3 -93 -3 -94 -50 -27 c-67 -36 -109 -80 -142 -148 -38 -77 -40 -200 -5
-276 30 -64 132 -162 183 -175 21 -6 41 -15 44 -20 8 -13 155 -13 155 0 0 5
12 13 28 16 101 25 180 109 218 233 18 61 18 99 -3 174 -15 51 -29 73 -86 133
-44 47 -77 74 -97 78 l-30 6 0 98 0 98 44 43 c45 44 66 95 66 160 0 27 7 34
51 58 29 16 59 33 68 38 9 6 34 21 56 33 22 12 58 33 80 47 22 14 50 29 62 34
12 6 41 22 63 36 23 14 56 34 73 44 18 10 62 35 100 57 37 21 80 46 95 54 125
71 181 104 207 120 17 11 39 24 50 30 11 5 43 23 70 40 28 16 57 33 65 37 15
7 132 75 160 93 8 6 25 14 38 20 12 5 47 26 77 45 31 19 59 35 63 35 4 0 18 9
32 20 31 24 66 25 105 3 18 -10 53 -17 90 -17 48 0 68 5 101 26 56 36 89 78
109 137 15 47 15 53 -2 108 -14 43 -30 69 -70 108 l-53 52 0 106 c0 125 2 127
90 72 30 -19 67 -40 83 -46 23 -9 27 -17 27 -49 0 -90 75 -187 167 -216 50
-16 56 -16 106 0 89 28 162 120 169 211 2 27 9 43 23 50 11 6 47 26 80 46 33
19 67 38 75 42 8 4 33 19 55 32 22 14 54 32 70 41 17 8 44 23 60 34 17 11 37
23 45 27 8 4 43 24 78 45 34 21 64 38 66 38 2 0 46 25 97 56 51 31 103 60 114
65 11 5 38 21 60 34 22 14 54 33 70 41 17 8 39 21 50 27 75 45 142 84 155 90
8 4 33 18 55 32 22 14 58 35 80 47 22 12 47 27 56 33 17 11 104 60 147 84 23
12 30 12 66 -8 50 -26 142 -29 187 -5 27 13 33 14 47 1 10 -8 24 -17 32 -21 8
-3 35 -19 60 -34 l45 -28 5 -85 c3 -46 12 -97 20 -114 21 -45 84 -118 127
-148 38 -26 149 -67 183 -67 23 0 131 35 167 54 50 26 120 108 139 164 10 28
22 52 26 52 5 0 8 32 8 70 0 39 -4 70 -10 70 -5 0 -13 18 -16 40 -9 53 -115
171 -181 200 -70 31 -212 28 -273 -5 -93 -51 -90 -50 -113 -35 -12 7 -33 20
-47 27 -77 42 -85 50 -91 84 -8 51 -32 89 -88 142 l-51 48 2 842 3 841 23 12
c94 47 140 181 93 272 -32 61 -90 110 -150 126 -45 12 -60 11 -104 -1 -29 -9
-56 -19 -61 -24 -17 -15 -34 -10 -101 31 -36 22 -69 40 -73 40 -5 0 -19 11
-32 25 -22 23 -22 25 -4 31 10 4 53 27 95 51 42 23 83 43 93 43 9 0 33 -9 53
-20 126 -67 303 47 303 195 -1 69 -28 124 -89 175 l-51 43 0 843 0 843 35 16
c19 9 38 22 43 28 25 31 62 108 62 130 0 28 16 43 91 85 66 37 81 39 117 12
15 -11 61 -29 102 -41 72 -20 77 -20 144 -4 92 22 167 71 210 137 18 29 37 68
40 86 4 17 12 32 17 32 15 0 10 115 -6 146 -8 16 -15 39 -15 51 0 30 -124 154
-181 181 -67 32 -191 31 -264 -3 -121 -55 -195 -166 -195 -294 0 -76 -7 -86
-92 -134 -50 -29 -113 -35 -150 -16 -25 14 -122 -5 -150 -29 -20 -17 -30 -14
-103 33 -31 19 -57 35 -60 35 -3 0 -49 26 -102 58 -54 32 -105 61 -113 65 -8
4 -24 13 -35 20 -11 7 -47 28 -80 47 -33 19 -69 40 -80 47 -11 7 -29 17 -40
22 -11 6 -42 24 -70 41 -27 16 -57 33 -65 37 -8 4 -42 23 -75 43 -33 20 -67
39 -75 43 -8 4 -32 17 -52 30 -20 12 -72 42 -115 67 -43 25 -87 50 -98 57 -11
7 -29 17 -40 22 -11 6 -42 24 -70 40 -27 16 -68 39 -90 51 -97 52 -120 73
-126 120 -16 126 -100 205 -218 205 -93 0 -163 -46 -201 -133 -11 -24 -20 -59
-20 -77 0 -41 -20 -59 -131 -117 -21 -11 -42 -24 -45 -29 -17 -29 -24 4 -24
116 0 121 1 126 23 134 36 15 74 62 97 123 21 57 21 58 3 115 -37 120 -142
181 -260 153 -30 -8 -56 -17 -59 -22 -9 -14 -47 -8 -79 12 -16 11 -50 31 -75
45 -25 13 -90 51 -145 84 -55 33 -120 70 -145 83 -25 12 -58 32 -75 44 -16 11
-37 24 -45 28 -23 10 -112 61 -293 165 -89 52 -184 108 -212 123 -27 16 -63
37 -80 48 -16 10 -58 33 -93 52 -35 18 -68 39 -74 45 -6 7 -15 13 -21 13 -6 0
-43 20 -83 45 l-72 45 -6 54 c-8 59 -51 137 -85 156 -19 10 -21 20 -21 103 0
102 2 105 82 146 54 28 108 103 134 191 19 63 17 110 -7 185 -24 75 -74 136
-153 189 l-54 36 -115 0 c-93 0 -116 -3 -121 -15z m332 -1316 c48 -29 107 -63
132 -77 25 -14 61 -35 80 -47 19 -12 42 -25 50 -29 8 -4 24 -12 35 -19 11 -7
47 -28 80 -47 33 -19 69 -40 80 -47 11 -7 27 -15 35 -19 8 -4 43 -25 78 -46
34 -21 65 -38 67 -38 3 0 47 -25 98 -56 51 -31 101 -60 112 -65 11 -5 27 -13
35 -19 28 -18 145 -86 160 -93 8 -4 38 -21 65 -37 28 -17 59 -35 70 -40 11 -6
34 -19 50 -29 17 -11 47 -29 67 -40 73 -40 83 -46 106 -65 48 -42 52 -64 52
-295 0 -119 -4 -221 -8 -227 -6 -10 -128 -84 -137 -84 -3 0 -29 -16 -60 -35
-30 -19 -65 -40 -77 -45 -13 -6 -30 -14 -38 -20 -44 -28 -151 -90 -157 -90 -3
0 -14 -6 -22 -14 -9 -7 -43 -28 -76 -46 -33 -17 -72 -39 -87 -48 -15 -9 -100
-59 -188 -110 -145 -83 -163 -91 -183 -80 -90 50 -190 40 -260 -26 -53 -51
-77 -101 -77 -158 0 -70 60 -167 117 -189 l23 -9 0 -590 0 -590 -22 -10 c-13
-6 -30 -14 -38 -19 -101 -63 -224 -132 -240 -134 -21 -2 -21 2 -20 227 0 138
5 235 11 242 5 7 20 15 33 18 13 3 53 37 88 75 53 57 67 81 81 130 21 74 21
104 3 175 -24 90 -74 158 -150 203 l-66 38 0 1288 c0 708 3 1287 6 1287 3 0
44 -23 92 -51z m-308 -1236 c0 -703 -4 -1283 -8 -1289 -4 -5 -22 -16 -39 -23
-39 -16 -153 -134 -153 -159 0 -10 -6 -24 -12 -30 -9 -9 -13 -45 -13 -105 0
-82 3 -98 30 -150 29 -59 114 -147 141 -147 8 0 23 -9 34 -20 19 -19 20 -33
20 -249 0 -127 -4 -232 -9 -235 -5 -3 -14 1 -21 9 -7 8 -17 15 -22 15 -6 0
-22 8 -36 18 -15 11 -58 36 -97 57 -38 21 -88 50 -110 64 l-40 27 -3 568 -2
568 70 67 70 66 0 98 0 98 -47 47 c-76 75 -168 87 -270 34 -29 -14 -34 -15
-50 -1 -10 9 -25 19 -33 23 -8 4 -24 12 -35 19 -11 7 -47 28 -80 47 -33 19
-69 40 -80 47 -11 6 -33 19 -50 27 -16 8 -48 27 -70 41 -22 13 -47 28 -55 32
-8 3 -55 31 -105 61 -49 30 -99 58 -110 63 -11 5 -38 21 -60 34 -22 14 -53 32
-70 41 -16 8 -43 23 -60 34 -16 10 -47 28 -67 39 -73 40 -83 46 -105 65 -22
19 -23 24 -23 224 l0 204 34 47 c30 41 86 91 101 91 5 0 238 133 305 175 19
12 42 24 50 28 8 4 22 11 30 17 25 16 144 86 160 94 8 4 24 12 35 19 11 7 43
25 70 40 28 15 64 36 80 47 17 11 44 26 60 34 17 9 48 27 70 40 22 14 54 32
70 41 17 9 39 21 50 28 11 7 43 25 70 40 28 15 64 36 80 47 17 11 39 24 50 30
11 6 43 23 70 40 28 16 69 39 93 52 24 12 46 26 48 30 3 4 14 8 25 8 19 0 19
-20 19 -1277z m-2153 -31 c26 -16 55 -31 63 -35 8 -4 38 -21 65 -37 28 -17 59
-35 70 -40 11 -6 34 -19 50 -30 17 -11 37 -23 45 -27 8 -3 27 -15 43 -25 l27
-19 0 -579 0 -579 -43 -30 c-69 -47 -97 -98 -97 -176 0 -76 12 -105 67 -156
54 -52 73 -59 149 -59 57 0 72 4 101 26 l33 25 33 -24 c17 -13 39 -27 47 -31
8 -3 29 -15 45 -26 17 -11 44 -26 60 -34 17 -9 48 -27 70 -41 22 -13 49 -29
61 -34 12 -5 46 -26 77 -45 31 -20 59 -36 62 -36 5 0 179 -101 225 -130 8 -6
22 -13 30 -17 8 -4 43 -24 78 -45 34 -21 64 -38 67 -38 3 0 34 -18 70 -40 36
-22 69 -40 74 -40 17 0 21 -34 21 -200 0 -112 -4 -171 -11 -176 -6 -3 -24 3
-40 15 -15 11 -31 21 -33 21 -3 0 -34 17 -68 38 -35 21 -70 41 -78 45 -8 4
-37 21 -65 37 -27 17 -57 33 -65 37 -8 3 -25 15 -37 26 -20 17 -23 31 -23 89
0 123 -74 237 -194 296 -42 21 -58 23 -149 20 -95 -3 -106 -5 -155 -36 -37
-23 -60 -31 -75 -26 -17 5 -65 32 -167 94 -38 23 -307 178 -358 207 -31 18
-73 42 -92 53 -19 11 -61 35 -92 53 -87 48 -343 196 -422 244 -39 23 -78 46
-86 50 -13 6 -101 57 -155 90 -11 7 -30 17 -43 22 -12 6 -46 26 -75 44 -28 18
-59 36 -67 40 -8 4 -22 11 -30 17 -8 5 -87 51 -175 101 -88 50 -173 100 -190
110 -16 10 -39 23 -50 29 -11 5 -42 23 -70 39 -27 17 -71 41 -97 53 -53 26
-59 38 -25 54 30 15 95 51 132 74 45 28 227 133 255 146 8 4 39 23 67 41 29
18 63 38 75 43 13 6 41 21 63 35 22 14 58 35 80 47 22 12 49 28 60 35 11 7 29
17 40 22 11 6 43 24 70 40 28 17 73 43 100 58 215 123 322 185 335 193 94 60
226 129 247 129 12 1 44 -12 70 -27z m4764 -64 c88 -51 181 -104 207 -118 39
-21 116 -65 192 -110 8 -5 49 -29 90 -52 41 -24 83 -47 92 -53 40 -23 310
-181 326 -190 9 -6 52 -30 95 -55 43 -25 86 -50 95 -55 10 -6 40 -23 67 -38
80 -44 160 -91 185 -107 22 -15 19 -18 -121 -98 -79 -46 -151 -87 -159 -92 -8
-5 -44 -26 -80 -47 -36 -21 -86 -49 -111 -63 -25 -14 -65 -36 -89 -50 -23 -14
-54 -32 -69 -40 -86 -50 -185 -106 -199 -115 -9 -6 -52 -31 -95 -55 -43 -25
-86 -50 -95 -55 -9 -6 -35 -21 -57 -33 -22 -12 -58 -33 -80 -47 -22 -14 -50
-29 -63 -35 -12 -5 -47 -26 -77 -45 -31 -19 -58 -35 -61 -35 -2 0 -48 -26
-102 -58 -53 -32 -104 -62 -112 -65 -8 -4 -37 -21 -65 -37 -27 -17 -59 -35
-70 -40 -11 -6 -33 -19 -50 -30 -16 -11 -39 -24 -50 -30 -11 -5 -42 -23 -70
-40 -27 -16 -57 -33 -65 -37 -14 -6 -129 -73 -160 -93 -8 -5 -28 -16 -45 -25
-16 -8 -38 -20 -47 -27 -13 -9 -21 -9 -40 1 -115 61 -110 60 -206 60 -114 1
-155 -15 -231 -91 -76 -75 -93 -114 -96 -215 -2 -94 3 -86 -100 -143 -33 -18
-89 -51 -124 -72 -35 -22 -74 -44 -85 -49 -12 -5 -34 -18 -51 -28 -56 -36 -56
-37 -53 161 l3 181 100 60 c55 32 125 73 155 90 30 16 71 40 90 52 19 12 42
25 50 28 8 4 38 21 65 37 28 17 59 35 70 40 11 6 34 19 50 30 17 11 44 26 60
34 17 9 48 27 70 40 22 14 54 32 70 41 17 8 48 26 70 40 22 14 54 32 72 40 17
8 34 19 38 25 9 15 56 12 89 -5 16 -9 55 -15 92 -15 54 0 72 5 114 31 51 31
75 65 99 141 20 60 -10 140 -76 204 l-53 52 2 582 3 582 40 24 c22 13 60 35
85 49 25 13 95 54 155 89 61 36 120 65 133 66 13 0 95 -42 183 -92z m-4147
-287 c6 -9 168 -105 216 -127 8 -4 29 -17 45 -28 17 -12 50 -32 75 -44 25 -13
77 -42 116 -65 72 -43 400 -234 433 -252 34 -19 49 -36 70 -76 20 -39 21 -53
21 -569 0 -328 -4 -531 -10 -535 -5 -3 -29 7 -52 22 -24 15 -61 37 -83 48 -22
11 -54 29 -70 41 -17 11 -37 24 -45 27 -8 4 -40 22 -71 40 -387 223 -494 285
-517 299 -15 10 -41 24 -59 32 -17 8 -39 27 -49 43 -9 15 -25 40 -35 55 -18
26 -19 57 -19 556 0 291 3 532 7 535 9 10 21 9 27 -2z m3296 -555 c0 -385 -3
-545 -11 -553 -6 -6 -16 -21 -23 -34 -9 -18 -96 -77 -156 -106 -13 -6 -101
-57 -155 -90 -11 -7 -30 -17 -42 -22 -12 -6 -41 -22 -63 -36 -23 -14 -56 -34
-73 -44 -18 -10 -62 -35 -100 -57 -37 -21 -80 -46 -95 -54 -117 -67 -181 -104
-207 -120 -16 -10 -36 -19 -42 -19 -10 -1 -13 115 -13 549 l0 551 43 42 c23
23 67 55 97 70 30 16 73 39 95 53 22 13 58 34 80 46 22 12 48 27 57 33 9 5 52
30 95 55 43 24 86 49 95 55 48 28 316 183 356 206 26 15 50 25 55 22 4 -2 7
-248 7 -547z m-5590 -161 c22 -14 42 -25 44 -25 3 0 46 -25 96 -55 50 -30 109
-65 131 -77 23 -13 49 -28 58 -33 19 -12 152 -88 227 -130 62 -35 449 -259
503 -292 20 -12 63 -36 96 -54 33 -17 67 -38 76 -45 8 -8 18 -14 22 -14 5 0
72 -38 152 -87 11 -7 30 -17 43 -22 12 -6 46 -26 75 -44 28 -18 59 -36 67 -40
8 -4 33 -18 55 -32 22 -13 49 -29 60 -35 11 -5 43 -23 70 -40 28 -16 57 -33
65 -37 8 -4 42 -23 75 -43 33 -20 67 -39 75 -43 8 -4 38 -21 65 -37 28 -16 57
-33 65 -36 44 -20 60 -47 60 -103 0 -88 54 -208 117 -260 21 -17 42 -31 47
-31 5 0 18 -8 29 -17 15 -14 42 -19 126 -21 93 -4 114 -1 154 17 25 11 49 25
52 31 13 21 67 9 127 -28 35 -21 70 -42 78 -46 8 -4 24 -12 35 -19 11 -7 57
-34 103 -60 45 -27 85 -53 88 -59 9 -14 -12 -31 -81 -67 -33 -18 -67 -36 -75
-41 -8 -5 -44 -27 -80 -48 l-65 -39 -38 24 c-20 13 -54 33 -75 44 -20 11 -50
29 -67 40 -16 10 -39 23 -50 29 -11 5 -42 23 -70 40 -27 16 -57 33 -65 37 -8
3 -59 33 -112 65 -54 32 -100 58 -102 58 -3 0 -30 16 -61 35 -30 19 -65 40
-77 45 -13 6 -41 22 -63 35 -22 14 -53 32 -70 41 -16 8 -43 23 -60 34 -16 11
-37 23 -45 27 -8 3 -27 15 -42 25 -25 17 -28 26 -28 75 0 61 -18 90 -92 151
-37 29 -47 32 -108 32 -57 0 -73 -4 -111 -30 -73 -48 -101 -91 -101 -156 l-1
-56 -51 -32 c-28 -18 -58 -36 -66 -39 -8 -4 -37 -21 -65 -37 -27 -17 -59 -35
-70 -40 -11 -6 -33 -19 -50 -29 -48 -30 -339 -197 -355 -204 -16 -7 -39 -21
-85 -52 -16 -11 -51 -31 -77 -45 -26 -14 -83 -46 -127 -72 -46 -26 -83 -42
-87 -37 -3 6 -16 14 -27 19 -12 5 -44 23 -72 40 -27 16 -57 33 -65 37 -8 4
-43 24 -78 45 -34 21 -66 38 -70 38 -12 1 -57 43 -85 82 l-27 37 0 865 c0 582
3 866 10 866 6 0 28 -11 50 -25z m7915 -17 c3 -18 5 -409 3 -868 l-3 -835 -22
-36 c-13 -19 -42 -46 -65 -60 -24 -13 -52 -29 -63 -36 -11 -7 -27 -15 -35 -19
-8 -4 -58 -33 -110 -64 -115 -69 -128 -74 -160 -55 -14 8 -35 19 -48 24 -12 6
-46 26 -75 44 -28 18 -59 36 -67 40 -8 4 -33 18 -55 32 -22 13 -49 29 -60 35
-11 5 -42 23 -70 40 -27 16 -57 33 -65 37 -15 7 -132 75 -160 93 -8 6 -24 14
-35 20 -11 5 -42 23 -70 39 -27 16 -68 39 -90 51 -22 12 -73 42 -112 67 -68
42 -73 47 -73 81 0 43 -40 129 -72 157 -73 63 -171 74 -252 29 -65 -36 -116
-120 -116 -189 0 -26 -7 -38 -29 -54 -16 -12 -32 -21 -35 -21 -3 0 -30 -16
-61 -35 -30 -19 -65 -40 -77 -46 -13 -5 -32 -15 -43 -22 -56 -34 -142 -84
-155 -90 -8 -4 -37 -21 -65 -37 -27 -17 -59 -35 -70 -40 -11 -6 -38 -21 -60
-35 -22 -14 -58 -35 -80 -47 -22 -12 -48 -27 -57 -33 -70 -41 -246 -141 -260
-147 -20 -8 -42 0 -103 37 -22 13 -47 27 -55 31 -8 4 -26 15 -40 24 -14 10
-49 30 -78 45 l-54 28 24 23 c13 13 51 38 85 56 34 18 115 64 179 101 128 75
117 73 194 25 28 -18 53 -23 133 -26 124 -5 163 8 244 86 76 72 93 111 93 211
0 42 4 81 8 87 8 13 63 47 100 64 12 5 48 26 79 46 31 19 65 40 77 45 12 6 30
15 41 22 11 7 47 28 80 47 33 19 69 40 80 47 11 7 29 17 40 22 11 6 43 24 70
41 28 16 57 33 65 37 8 4 42 23 75 43 33 20 67 39 75 43 8 4 22 11 30 17 60
38 221 130 228 130 5 0 14 6 20 13 6 6 40 28 76 47 37 19 74 40 84 45 62 36
140 82 157 92 11 7 27 15 35 19 8 4 42 24 75 44 33 20 67 39 75 43 8 4 29 15
45 26 83 51 347 201 354 201 4 0 13 6 19 12 12 12 107 67 180 104 18 9 35 20
38 25 12 20 33 7 39 -23z m-4317 -1443 c50 -30 96 -55 101 -55 13 0 21 -26 21
-71 0 -44 29 -96 79 -143 31 -29 31 -31 31 -128 0 -54 -4 -98 -9 -98 -14 0
-120 58 -158 87 -26 19 -33 31 -33 59 0 60 -38 113 -107 148 l-33 17 0 113 c0
95 4 126 15 126 1 0 43 -25 93 -55z m762 -75 l0 -108 -45 -40 c-52 -46 -95
-115 -95 -155 0 -17 -7 -30 -17 -34 -18 -7 -39 -19 -100 -61 -58 -40 -63 -34
-63 76 l0 98 45 44 c36 36 46 53 55 99 6 31 13 65 15 76 2 12 23 30 47 43 24
12 65 35 93 51 27 16 53 27 57 25 5 -3 8 -54 8 -114z m-2584 -141 c77 -45 148
-85 159 -90 11 -5 40 -22 65 -38 25 -16 65 -40 90 -52 25 -12 52 -28 60 -34 8
-7 42 -27 75 -44 33 -18 76 -42 96 -54 20 -12 86 -51 147 -86 62 -35 112 -67
112 -72 0 -9 -55 -46 -124 -83 -23 -13 -57 -32 -76 -44 -19 -12 -53 -32 -75
-43 -44 -23 -51 -27 -145 -82 -36 -21 -72 -42 -80 -47 -8 -5 -78 -46 -155 -90
-77 -45 -149 -87 -160 -93 -91 -55 -96 -57 -155 -57 -60 0 -99 15 -208 83 -20
13 -44 27 -52 30 -8 4 -28 16 -45 27 -16 11 -39 24 -50 30 -11 5 -42 23 -70
40 -27 16 -57 33 -65 37 -14 6 -129 73 -160 93 -8 5 -28 16 -45 25 -16 8 -48
25 -70 39 -22 14 -58 34 -80 46 -65 35 -135 82 -135 90 0 7 296 180 370 216 8
4 39 23 67 41 29 18 63 38 75 44 13 5 32 15 43 22 55 34 142 84 155 90 8 4 65
36 125 72 72 42 121 65 141 65 22 0 76 -26 170 -81z m4539 72 c3 -6 40 -29 83
-53 42 -24 85 -47 94 -53 9 -5 52 -30 95 -55 43 -24 90 -51 104 -60 231 -134
311 -181 364 -210 34 -19 69 -40 76 -46 8 -6 36 -21 62 -34 26 -12 46 -27 45
-32 -3 -9 -36 -31 -108 -71 -14 -8 -43 -24 -65 -36 -22 -12 -52 -30 -67 -39
-25 -16 -249 -145 -343 -199 -22 -12 -47 -26 -55 -29 -8 -4 -28 -17 -45 -29
-16 -12 -50 -32 -75 -44 -52 -27 -71 -37 -124 -70 -27 -17 -55 -25 -90 -25
-49 -2 -69 6 -161 61 -11 7 -27 16 -35 20 -13 6 -63 35 -152 88 -9 5 -41 23
-70 39 -29 16 -65 37 -80 47 -14 11 -29 19 -32 19 -3 0 -50 26 -103 58 -54 32
-105 61 -113 65 -8 4 -22 11 -30 17 -48 31 -152 90 -158 90 -5 0 -19 11 -32
25 -22 23 -22 25 -4 31 26 8 35 13 59 27 11 7 47 28 80 47 33 19 68 40 77 45
9 6 52 30 95 55 43 24 85 49 94 55 9 5 40 24 69 40 29 17 60 35 69 40 18 11
144 83 227 130 29 17 77 44 106 62 53 32 130 45 143 24z m-2970 -452 c53 -23
134 -22 172 2 23 14 27 12 98 -31 28 -16 60 -34 73 -40 39 -17 30 -31 -56 -75
-29 -15 -55 -31 -58 -36 -8 -13 -56 -11 -103 6 -37 13 -46 12 -98 -6 -32 -11
-65 -22 -74 -25 -23 -8 -213 100 -207 117 4 13 170 108 189 108 9 1 38 -9 64
-20z m1328 -23 c31 -20 68 -41 83 -46 43 -17 34 -25 -115 -110 -58 -32 -71
-35 -86 -21 -6 5 -34 16 -63 24 -45 13 -59 13 -99 1 -25 -8 -56 -14 -67 -14
-26 1 -161 83 -161 98 0 11 149 102 166 102 3 0 20 -7 35 -15 41 -21 113 -19
154 5 46 26 83 20 153 -24z m-1793 -231 c8 -7 30 -21 49 -31 19 -11 59 -33 90
-51 31 -17 73 -41 94 -53 41 -22 46 -37 20 -48 -10 -4 -53 -27 -96 -52 -43
-25 -99 -57 -126 -71 -26 -14 -61 -34 -77 -45 -91 -60 -90 -60 -128 -30 -19
14 -38 26 -41 26 -4 0 -22 7 -40 16 -25 12 -54 14 -117 11 -117 -6 -149 -20
-226 -102 -77 -81 -102 -142 -102 -244 0 -54 -3 -63 -22 -71 -13 -5 -45 -23
-73 -40 -27 -16 -57 -33 -65 -37 -13 -6 -99 -56 -155 -90 -11 -7 -30 -17 -43
-22 -12 -6 -48 -27 -79 -47 -31 -19 -65 -40 -77 -45 -12 -5 -28 -13 -36 -19
-28 -18 -145 -86 -160 -93 -8 -4 -37 -21 -65 -37 -27 -17 -59 -35 -70 -40 -11
-6 -33 -19 -50 -30 -16 -11 -37 -23 -45 -27 -8 -4 -43 -24 -78 -45 -34 -21
-65 -38 -67 -38 -3 0 -47 -25 -98 -56 -51 -31 -101 -60 -112 -65 -11 -5 -38
-21 -60 -34 -22 -14 -53 -32 -70 -40 -16 -9 -37 -20 -45 -25 -29 -18 -145 -86
-160 -94 -8 -4 -24 -12 -35 -19 -18 -11 -110 -65 -157 -92 -88 -51 -317 -185
-346 -202 -20 -12 -45 -22 -54 -23 -17 0 -18 48 -18 864 0 730 2 865 14 875 8
7 21 26 30 44 9 21 32 41 63 56 26 14 59 32 73 42 14 9 48 29 75 43 28 15 59
32 70 39 77 47 97 57 119 57 13 0 29 -7 36 -15 7 -8 17 -15 22 -15 6 0 22 -8
36 -19 15 -10 51 -31 80 -47 29 -16 61 -33 70 -39 22 -13 131 -77 154 -90 10
-5 83 -48 163 -95 81 -47 174 -101 209 -120 35 -19 70 -40 77 -46 8 -5 36 -21
63 -35 74 -37 110 -74 102 -105 -10 -37 33 -125 75 -156 68 -49 132 -59 209
-32 80 27 130 91 130 164 0 57 11 74 77 112 32 18 67 38 78 45 11 7 29 17 40
22 11 6 43 24 70 41 28 16 57 33 65 37 13 6 118 67 160 93 14 8 126 73 195
112 17 9 37 20 45 24 8 4 29 17 45 29 17 12 50 31 75 44 25 12 54 27 64 34
113 70 119 72 156 42z m2273 -47 c59 -35 133 -77 165 -95 63 -35 119 -68 142
-83 8 -5 107 -62 220 -127 113 -64 229 -131 258 -147 30 -17 64 -37 78 -44 19
-10 24 -21 24 -51 0 -109 113 -222 222 -221 108 1 218 112 218 221 0 29 5 41
18 46 9 4 60 33 113 65 53 32 99 58 103 58 3 0 30 16 61 35 30 19 65 40 77 46
13 5 32 15 43 22 11 7 49 29 85 50 36 21 72 42 80 47 8 5 49 29 90 52 41 24
82 47 91 53 9 5 35 20 59 33 23 13 71 41 106 63 68 41 104 48 124 24 7 -8 16
-15 21 -15 5 0 37 -17 71 -38 35 -21 70 -41 78 -45 8 -4 22 -11 30 -17 8 -5
43 -26 77 -45 44 -25 70 -48 88 -78 l25 -43 0 -850 c0 -467 -4 -855 -9 -863
-9 -13 -13 -11 -126 56 -11 7 -29 17 -40 22 -11 6 -42 24 -70 41 -27 16 -57
33 -65 37 -15 7 -132 75 -160 93 -8 6 -26 15 -40 21 -14 6 -32 16 -40 23 -8 7
-42 28 -75 46 -93 51 -107 59 -150 86 -22 14 -53 31 -70 39 -16 9 -37 20 -45
25 -31 20 -146 87 -160 93 -8 4 -37 21 -65 37 -27 17 -59 35 -70 40 -11 6 -33
19 -50 30 -27 17 -131 77 -207 120 -36 21 -179 103 -200 115 -50 30 -125 72
-138 79 -8 4 -24 12 -35 19 -54 33 -142 84 -155 90 -8 4 -31 17 -50 28 -19 12
-73 44 -120 71 -47 28 -91 58 -97 66 -8 10 -13 46 -13 94 0 66 -4 87 -26 126
-38 70 -71 100 -148 138 -62 30 -78 34 -152 34 -46 0 -85 -4 -88 -9 -3 -5 -18
-12 -33 -16 -16 -3 -42 -17 -60 -31 -17 -13 -34 -24 -36 -24 -3 0 -52 28 -109
61 -56 34 -116 70 -133 79 -16 9 -61 34 -98 54 -37 21 -66 43 -65 48 4 10 62
48 98 65 8 4 42 23 75 42 102 60 119 69 136 70 9 1 64 -27 122 -61z m-1065 -3
c112 -60 127 -72 133 -106 13 -71 59 -137 112 -163 20 -11 22 -19 25 -121 3
-127 0 -144 -26 -123 -9 8 -42 27 -72 43 -96 50 -107 61 -113 117 -7 56 -44
126 -81 155 -23 17 -25 25 -28 121 -2 56 -2 102 0 102 1 0 24 -11 50 -25z
m-260 -79 l3 -89 -44 -46 c-50 -53 -67 -87 -67 -139 0 -20 -4 -42 -8 -48 -13
-21 -195 -125 -208 -120 -11 4 -14 31 -14 111 0 94 2 107 21 123 11 9 43 38
69 64 43 41 49 52 52 94 l3 47 80 48 c44 27 87 47 95 46 12 -2 16 -21 18 -91z
m-558 -401 l0 -173 -32 -27 c-18 -15 -41 -31 -52 -36 -12 -6 -30 -15 -41 -22
-11 -7 -54 -31 -95 -55 -41 -23 -82 -47 -90 -52 -97 -58 -222 -130 -225 -130
-3 0 -33 -17 -67 -38 -35 -21 -70 -41 -78 -45 -8 -4 -37 -21 -65 -37 -27 -17
-59 -35 -70 -40 -11 -6 -33 -19 -50 -30 -16 -11 -37 -23 -45 -27 -8 -4 -37
-20 -63 -36 -43 -26 -50 -28 -65 -14 -9 8 -41 20 -69 28 -46 11 -60 11 -107
-4 -64 -21 -99 -46 -132 -98 -32 -51 -34 -151 -4 -209 19 -38 76 -90 97 -90 6
0 14 -7 17 -16 3 -9 6 -271 6 -583 l0 -568 -22 -20 c-13 -12 -50 -35 -83 -53
-33 -18 -80 -45 -105 -60 -25 -16 -68 -40 -97 -54 -28 -14 -55 -31 -58 -36 -8
-13 -132 -13 -140 1 -4 5 -17 15 -28 20 -12 5 -44 23 -72 39 -27 17 -59 35
-70 40 -11 6 -42 24 -70 40 -27 17 -59 35 -70 41 -11 5 -29 15 -40 22 -11 7
-38 23 -60 35 -22 12 -58 33 -80 47 -22 14 -51 30 -65 37 -14 7 -63 35 -110
63 -47 28 -92 54 -100 58 -8 4 -37 21 -65 37 -27 17 -59 35 -70 40 -11 6 -33
19 -50 30 -16 11 -39 24 -50 30 -11 5 -42 23 -70 40 -27 16 -57 33 -65 37 -8
3 -59 33 -112 65 -54 32 -100 58 -102 58 -18 0 -114 72 -111 83 3 7 27 23 53
36 26 14 54 30 62 37 8 6 42 26 75 43 33 18 78 43 100 57 22 13 58 34 80 46
22 12 47 27 56 33 9 5 40 24 69 40 29 17 60 35 69 40 9 6 51 31 94 55 43 25
86 50 95 55 9 6 51 29 92 53 41 23 82 47 90 52 16 10 459 265 500 287 14 8 39
23 55 33 17 11 39 24 50 30 11 5 43 23 70 40 28 16 57 33 65 37 13 6 99 56
155 90 11 7 30 17 43 22 12 6 46 25 75 44 28 18 63 38 77 45 14 6 34 18 45 24
10 7 48 30 82 52 l64 38 37 -25 c69 -48 140 -70 210 -64 34 3 68 9 75 14 6 6
25 13 40 17 35 8 167 138 167 164 0 10 6 24 13 30 7 8 14 50 17 99 5 93 4 92
85 133 11 6 43 24 70 40 28 16 57 33 65 37 8 4 43 24 78 45 34 21 66 38 71 38
5 0 14 7 21 15 7 8 16 12 21 9 5 -3 9 -83 9 -179z m1528 72 c40 -23 83 -48 95
-55 12 -7 45 -25 72 -41 l50 -28 8 -92 c6 -71 14 -104 33 -140 44 -80 75 -105
198 -162 37 -18 170 -19 188 -1 6 6 18 12 26 12 8 0 34 14 59 31 25 16 51 28
57 24 6 -3 25 -14 41 -25 17 -10 41 -25 55 -33 14 -8 43 -24 65 -36 22 -12 54
-31 70 -42 17 -10 39 -23 50 -29 11 -5 43 -23 70 -40 28 -16 60 -34 73 -40 20
-9 94 -53 148 -88 10 -7 33 -19 49 -27 17 -9 48 -27 70 -41 22 -13 54 -31 70
-40 17 -8 44 -23 60 -34 17 -11 39 -24 50 -30 11 -5 43 -23 70 -40 28 -16 57
-33 65 -37 15 -7 132 -75 160 -93 8 -6 24 -14 35 -20 11 -5 43 -23 70 -40 28
-16 61 -35 75 -42 14 -7 60 -34 103 -61 43 -26 88 -52 100 -58 12 -5 40 -21
62 -34 22 -14 54 -32 70 -41 17 -8 44 -23 60 -34 17 -11 39 -24 50 -30 11 -5
43 -23 70 -40 28 -16 57 -33 65 -37 25 -12 244 -141 268 -158 12 -9 22 -20 22
-25 0 -5 -24 -20 -52 -35 -29 -14 -75 -39 -103 -56 -27 -16 -59 -34 -70 -39
-11 -6 -42 -24 -70 -40 -27 -17 -59 -35 -70 -40 -11 -6 -32 -18 -47 -28 -31
-19 -292 -172 -372 -217 -80 -45 -209 -119 -227 -130 -9 -5 -40 -23 -70 -40
-30 -16 -62 -34 -71 -40 -9 -5 -83 -48 -163 -94 -80 -46 -148 -88 -151 -93 -7
-11 -141 -10 -148 1 -5 7 -247 150 -321 189 l-25 13 0 595 c0 388 3 594 10
594 27 0 89 73 109 130 22 59 22 62 6 113 -23 69 -89 138 -150 156 -54 16
-100 10 -161 -20 -40 -19 -47 -20 -62 -7 -9 8 -24 18 -32 22 -8 3 -35 19 -60
34 -113 67 -488 283 -520 299 -12 6 -119 68 -160 93 -22 13 -162 93 -185 105
-19 10 -20 22 -23 185 -1 96 0 180 3 187 3 10 18 6 57 -17 29 -17 86 -50 126
-73z m-717 -235 c13 -10 31 -22 39 -25 8 -4 38 -21 65 -37 28 -17 59 -35 70
-40 11 -6 38 -21 60 -34 l40 -24 3 -583 2 -583 -51 -45 c-29 -25 -60 -63 -70
-85 -46 -102 1 -226 108 -280 48 -24 145 -21 192 6 44 25 24 33 240 -93 79
-46 166 -97 195 -112 28 -16 62 -36 76 -45 14 -9 46 -28 72 -42 26 -14 113
-63 193 -110 80 -47 165 -96 188 -109 97 -54 87 -22 87 -280 0 -191 -2 -231
-15 -241 -8 -7 -15 -19 -15 -26 0 -12 -76 -67 -120 -87 -8 -4 -28 -16 -45 -27
-16 -11 -43 -26 -60 -34 -16 -9 -48 -27 -70 -41 -22 -13 -50 -29 -63 -35 -12
-5 -47 -26 -77 -45 -31 -19 -58 -35 -62 -35 -3 0 -49 -26 -102 -58 -53 -33
-103 -62 -111 -65 -8 -4 -22 -11 -30 -17 -27 -17 -145 -86 -160 -93 -8 -4 -37
-21 -65 -37 -27 -17 -59 -35 -70 -40 -11 -6 -33 -19 -50 -30 -16 -11 -39 -24
-50 -30 -11 -5 -42 -23 -70 -39 -27 -17 -63 -37 -80 -46 -16 -9 -39 -21 -50
-28 -11 -6 -48 -29 -81 -49 -34 -21 -71 -39 -83 -40 l-21 -3 0 1284 c0 706 2
1287 5 1291 2 4 17 10 33 13 18 4 52 31 93 74 65 69 79 100 96 202 6 39 -13
132 -36 176 -25 48 -92 114 -143 142 l-48 26 0 239 c0 131 4 238 9 238 4 0 19
-8 32 -18z m-256 -232 l0 -235 -23 -3 c-29 -4 -172 -145 -172 -169 0 -11 -6
-25 -12 -31 -9 -9 -13 -45 -13 -105 0 -80 4 -99 28 -148 32 -67 78 -114 144
-150 l48 -26 3 -1279 c1 -703 0 -1285 -3 -1292 -4 -10 -11 -9 -32 6 -16 11
-50 32 -78 46 -27 15 -72 41 -100 57 -27 16 -59 34 -70 39 -11 6 -32 18 -47
28 -15 9 -125 73 -244 142 -219 127 -258 149 -400 230 -44 25 -86 49 -95 55
-9 5 -38 22 -65 37 -27 15 -94 54 -149 87 -55 33 -124 72 -154 88 -53 28 -60
34 -107 106 -24 38 -24 40 -22 244 l3 206 30 19 c17 10 37 21 45 25 8 4 42 23
75 43 33 20 67 39 75 43 8 4 38 21 65 37 28 17 59 35 70 40 11 6 34 18 50 29
17 10 102 59 190 110 195 112 174 100 267 155 43 25 80 46 83 46 3 0 19 10 35
22 l30 22 45 -22 c32 -16 64 -22 109 -22 54 0 69 4 103 29 23 16 53 45 67 64
23 30 26 43 26 118 0 103 -24 153 -85 184 -22 11 -43 25 -47 30 -4 6 -7 269
-5 585 2 563 2 575 22 585 18 9 111 63 157 90 9 6 37 21 63 35 26 13 49 28 52
33 3 4 12 7 21 5 15 -3 17 -27 17 -238z m-555 -618 c0 -483 -2 -540 -17 -562
-22 -34 -75 -90 -84 -90 -5 0 -53 -27 -107 -60 -55 -33 -102 -60 -106 -60 -3
0 -30 -16 -61 -35 -30 -19 -65 -40 -77 -45 -24 -10 -41 -21 -92 -54 -16 -11
-51 -31 -77 -45 -26 -14 -64 -36 -85 -49 -49 -29 -147 -84 -199 -113 -22 -12
-48 -28 -57 -36 -10 -9 -24 -13 -33 -10 -13 6 -15 69 -15 541 l0 534 40 48
c22 27 60 60 84 74 25 14 80 46 123 71 43 25 85 49 93 52 8 4 35 21 60 37 25
16 56 35 70 42 14 7 52 29 85 48 33 20 67 39 75 43 8 4 29 16 45 26 17 11 57
34 90 51 33 18 67 38 75 44 8 6 35 22 60 35 25 14 54 30 65 38 46 31 45 45 45
-525z m1437 488 c38 -22 75 -45 83 -50 8 -6 29 -17 45 -25 17 -9 48 -27 70
-40 22 -14 58 -35 80 -47 22 -12 49 -28 60 -35 11 -7 29 -17 40 -22 11 -6 43
-24 70 -41 28 -16 57 -33 65 -37 8 -4 42 -23 75 -43 33 -20 67 -40 75 -44 8
-4 24 -12 35 -19 11 -7 46 -27 78 -46 35 -20 68 -48 83 -72 l24 -39 0 -539 c0
-303 -4 -542 -9 -545 -5 -3 -14 1 -21 9 -7 8 -16 15 -21 15 -7 0 -67 34 -154
87 -11 7 -30 17 -43 22 -12 6 -46 26 -75 44 -28 18 -59 36 -67 40 -8 4 -33 18
-55 32 -22 13 -49 29 -60 35 -11 5 -42 23 -70 40 -27 16 -57 33 -65 37 -8 4
-42 23 -75 43 -33 20 -67 39 -75 43 -8 4 -24 13 -35 19 -11 7 -43 28 -72 45
-29 18 -53 39 -53 47 0 7 -7 19 -15 26 -13 11 -15 85 -15 556 0 474 2 544 15
544 8 0 45 -18 82 -40z"/>
<path d="M12495 10479 c-159 -21 -332 -86 -457 -170 -92 -63 -227 -197 -298
-297 -156 -219 -253 -487 -307 -847 -22 -151 -25 -668 -5 -810 62 -434 194
-746 418 -984 242 -258 564 -375 910 -331 364 45 626 235 799 578 24 48 56
119 71 157 27 72 94 308 94 332 0 7 -17 20 -37 29 -66 27 -477 184 -478 181 0
-1 -15 -60 -33 -132 -46 -185 -118 -330 -210 -422 -245 -246 -617 -189 -823
124 -108 166 -163 410 -175 788 -12 352 28 645 116 851 51 117 164 250 264
309 162 95 382 98 535 7 74 -43 165 -137 209 -214 33 -57 92 -222 92 -257 0
-12 1 -21 3 -21 2 0 109 32 238 71 129 39 248 75 266 80 l31 9 -28 110 c-62
235 -154 410 -292 555 -192 202 -416 301 -703 310 -71 2 -161 0 -200 -6z"/>
<path d="M29280 9833 l-1 -598 -41 50 c-185 222 -395 314 -628 275 -301 -50
-527 -282 -634 -653 -106 -366 -95 -920 25 -1263 102 -292 304 -514 534 -587
92 -29 244 -30 325 -3 154 52 299 164 397 308 l48 70 3 -171 2 -171 240 0 240
0 0 1670 0 1670 -255 0 -255 0 0 -597z m-313 -774 c99 -38 192 -140 239 -265
101 -269 93 -776 -16 -996 -59 -118 -113 -178 -210 -229 -37 -20 -60 -24 -130
-24 -73 0 -93 4 -142 28 -105 52 -206 193 -243 342 -54 217 -56 579 -5 779 48
189 159 330 293 372 65 20 148 17 214 -7z"/>
<path d="M20238 10173 l-248 -185 0 -239 0 -239 -115 0 -115 0 0 -255 0 -255
115 0 115 0 0 -627 c0 -833 11 -977 83 -1120 53 -104 182 -189 322 -214 121
-21 315 6 444 62 43 18 51 26 51 48 0 40 -39 463 -43 467 -1 2 -32 -9 -67 -23
-90 -37 -177 -38 -215 -3 -61 56 -59 34 -63 753 l-4 657 176 0 176 0 0 255 0
255 -175 0 -175 0 0 425 c0 234 -3 425 -7 424 -5 0 -119 -84 -255 -186z"/>
<path d="M14973 9552 c-109 -39 -179 -111 -275 -280 l-53 -93 -3 165 -2 166
-235 0 -235 0 0 -1210 0 -1210 254 0 254 0 5 683 c3 557 7 701 20 787 36 233
90 351 186 403 97 53 205 44 311 -28 29 -20 54 -34 56 -33 1 2 36 120 77 262
40 143 76 255 79 250 3 -5 164 -533 358 -1173 l351 -1164 -25 -88 c-57 -199
-148 -328 -255 -362 -63 -20 -148 -21 -251 -3 -41 8 -76 12 -78 11 -2 -2 4
-79 13 -171 9 -93 19 -200 22 -239 3 -38 10 -75 14 -81 30 -38 371 -52 487
-20 244 66 371 203 481 520 23 64 644 2185 825 2819 l14 47 -263 0 c-242 0
-264 -1 -269 -17 -3 -10 -102 -391 -222 -848 -119 -456 -219 -833 -223 -837
-3 -4 -39 118 -80 270 -40 152 -138 520 -218 817 -79 297 -149 557 -154 578
l-10 37 -271 0 c-265 0 -270 0 -265 -20 6 -25 0 -25 -43 1 -113 69 -280 96
-377 61z"/>
<path d="M18635 9555 c-166 -37 -329 -160 -432 -327 l-38 -62 -3 172 -2 172
-240 0 -240 0 0 -1675 0 -1675 255 0 255 0 0 613 1 612 31 -40 c74 -95 213
-220 280 -253 138 -68 305 -78 449 -28 288 100 504 410 580 832 27 149 38 527
19 686 -44 389 -176 669 -399 848 -146 117 -340 164 -516 125z m129 -529 c110
-54 199 -184 242 -352 61 -243 48 -648 -27 -850 -112 -300 -412 -376 -611
-155 -121 136 -178 348 -178 666 0 395 115 639 335 712 63 21 173 11 239 -21z"/>
<path d="M21945 9560 c-258 -41 -488 -193 -633 -420 -84 -130 -161 -335 -199
-525 -27 -137 -25 -478 4 -640 43 -234 103 -394 203 -540 181 -260 503 -420
813 -402 126 8 211 29 322 82 302 142 522 465 597 875 28 153 30 467 5 610
-53 291 -167 528 -342 705 -118 120 -249 196 -404 236 -88 23 -277 33 -366 19z
m294 -545 c44 -20 79 -47 125 -96 112 -119 166 -261 186 -494 13 -147 0 -331
-30 -452 -45 -176 -150 -322 -278 -385 -60 -30 -75 -33 -157 -33 -80 0 -97 4
-155 31 -149 71 -249 222 -297 445 -25 119 -25 420 1 539 54 258 187 427 371
474 51 13 174 -2 234 -29z"/>
<path d="M24455 9556 c-184 -43 -325 -142 -445 -311 l-55 -76 -3 170 -2 171
-240 0 -240 0 0 -1210 0 -1210 255 0 255 0 0 608 c0 621 10 893 35 1017 31
149 125 278 242 333 78 36 206 39 268 5 51 -27 107 -86 135 -142 52 -105 53
-114 57 -998 l5 -823 254 0 254 0 0 843 c0 867 -4 993 -41 1147 -54 233 -199
394 -414 460 -90 28 -238 35 -320 16z"/>
<path d="M26485 9560 c-249 -39 -473 -181 -614 -389 -94 -139 -181 -360 -217
-556 -28 -150 -26 -484 4 -654 25 -141 74 -296 128 -403 167 -333 526 -546
887 -525 126 8 211 29 322 82 302 142 522 465 597 875 28 153 30 467 5 610
-53 291 -167 528 -342 705 -118 120 -249 196 -404 236 -88 23 -277 33 -366 19z
m298 -548 c130 -65 231 -208 279 -397 20 -80 23 -114 23 -315 0 -201 -3 -235
-23 -315 -48 -190 -148 -332 -280 -397 -59 -29 -76 -33 -152 -33 -59 0 -100 6
-135 19 -157 59 -272 222 -321 456 -26 120 -26 420 0 540 54 258 188 428 371
474 11 3 55 4 97 2 63 -2 89 -8 141 -34z"/>
<path d="M30870 9555 c-350 -70 -617 -405 -701 -884 -27 -149 -36 -462 -20
-622 58 -550 296 -893 689 -991 123 -31 351 -31 466 1 224 60 393 203 509 428
50 97 103 240 94 250 -7 6 -499 115 -502 111 -1 -2 -10 -28 -20 -58 -61 -190
-169 -278 -330 -267 -91 5 -155 36 -225 107 -96 96 -150 229 -165 408 l-8 82
643 0 643 0 -7 178 c-21 574 -172 948 -458 1138 -168 112 -408 159 -608 119z
m286 -492 c35 -12 67 -35 115 -82 98 -98 144 -212 156 -387 l6 -84 -383 0
-383 0 6 88 c18 243 130 422 297 473 44 13 135 10 186 -8z"/>
<path d="M32885 9560 c-95 -13 -184 -38 -265 -77 -108 -51 -230 -175 -287
-293 -56 -114 -73 -183 -80 -322 -12 -237 49 -418 187 -558 60 -60 85 -77 202
-134 145 -70 250 -108 519 -189 267 -81 303 -109 303 -242 0 -85 -27 -142 -92
-192 -66 -50 -137 -68 -272 -68 -108 0 -119 2 -181 31 -108 51 -178 144 -214
280 -8 32 -16 58 -18 60 -5 5 -497 -92 -504 -100 -10 -10 33 -149 72 -234 62
-133 177 -270 290 -345 272 -180 742 -196 1048 -35 85 45 219 181 274 278 90
161 126 346 104 536 -25 215 -104 355 -260 458 -129 85 -237 129 -596 241
-226 71 -335 122 -365 169 -67 109 -11 231 127 273 43 13 91 18 183 18 133 0
181 -13 248 -65 40 -32 89 -106 108 -164 9 -28 18 -52 19 -54 1 -1 80 16 176
38 234 54 291 68 297 75 7 7 -23 104 -56 180 -113 261 -291 391 -591 431 -114
15 -278 16 -376 4z"/>
</g>
</svg>
