<?xml version="1.0" standalone="no"?>
<!DOCTYPE svg PUBLIC "-//W3C//DTD SVG 20010904//EN"
 "http://www.w3.org/TR/2001/REC-SVG-20010904/DTD/svg10.dtd">
<svg version="1.0" xmlns="http://www.w3.org/2000/svg"
 width="2560.000000pt" height="1301.000000pt" viewBox="0 0 2560.000000 1301.000000"
 preserveAspectRatio="xMidYMid meet">

<g transform="translate(0.000000,1301.000000) scale(0.100000,-0.100000)"
fill="#FFFFFF" stroke="none">
<path d="M3755 10164 c-606 -53 -1173 -242 -1675 -558 -232 -146 -429 -304
-641 -516 -995 -991 -1342 -2441 -902 -3775 106 -321 236 -589 429 -881 551
-837 1416 -1412 2404 -1599 251 -47 387 -59 685 -58 294 0 461 15 703 63 1445
284 2581 1391 2907 2829 56 245 76 427 82 717 4 170 1 320 -6 405 -103 1181
-768 2243 -1787 2857 -146 88 -477 252 -508 252 -6 0 -16 4 -21 9 -26 22 -345
124 -535 170 -232 56 -633 102 -863 100 -62 -1 -184 -8 -272 -15z m381 -133
c64 -29 103 -106 90 -176 -8 -43 -59 -103 -103 -122 l-33 -13 0 -90 c0 -79 2
-91 20 -100 28 -15 51 -64 45 -97 -6 -27 0 -31 221 -158 125 -71 342 -196 482
-277 l255 -147 27 19 c52 37 119 17 139 -42 15 -42 -7 -91 -48 -107 l-31 -13
0 -129 c0 -71 2 -129 5 -129 8 0 198 110 210 121 5 5 8 25 6 44 -2 28 4 41 29
66 27 27 36 31 68 26 51 -9 84 -48 80 -96 -3 -41 -23 -28 367 -252 99 -56 272
-156 384 -221 112 -65 205 -118 208 -118 3 0 16 9 30 20 31 24 54 25 93 5 28
-14 31 -13 102 29 72 43 73 44 71 81 -4 62 14 110 56 148 21 19 54 37 74 41
110 21 213 -81 193 -189 -9 -46 -66 -110 -112 -125 -46 -15 -108 -4 -143 26
-16 13 -33 24 -39 24 -6 0 -42 -18 -81 -41 -60 -35 -71 -45 -71 -68 0 -34 -23
-67 -61 -86 l-29 -16 0 -553 0 -554 30 -12 c30 -13 60 -54 60 -84 0 -31 -24
-66 -57 -81 -32 -16 -36 -15 -78 5 l-44 21 -101 -58 c-55 -32 -101 -62 -102
-68 -1 -5 45 -37 102 -69 103 -59 103 -59 132 -43 47 27 92 22 122 -14 14 -17
26 -39 26 -50 0 -34 -28 -76 -60 -89 l-30 -12 0 -554 0 -553 29 -16 c38 -19
61 -52 61 -86 0 -22 11 -33 69 -68 72 -42 95 -49 107 -30 15 25 95 51 136 44
60 -11 124 -76 133 -137 19 -128 -113 -225 -229 -169 -62 31 -90 78 -91 154
l0 59 -74 43 c-68 40 -75 42 -100 29 -37 -19 -64 -17 -95 7 l-26 21 -43 -24
c-99 -56 -788 -454 -852 -493 -68 -40 -70 -42 -67 -78 5 -48 -40 -97 -88 -97
-48 0 -93 49 -88 97 l3 37 -109 63 c-60 35 -110 63 -112 63 -2 0 -4 -58 -4
-129 l0 -129 31 -13 c45 -18 64 -67 45 -113 -24 -57 -90 -75 -138 -37 l-25 20
-64 -38 c-35 -21 -228 -133 -429 -248 -201 -116 -387 -224 -415 -240 -48 -28
-50 -32 -51 -73 0 -36 -6 -48 -32 -70 -32 -26 -32 -27 -32 -117 0 -88 1 -91
25 -97 39 -10 94 -64 106 -106 30 -100 -50 -210 -152 -210 -111 0 -195 118
-154 216 21 52 42 73 93 96 l42 19 0 81 c0 80 0 82 -35 114 -30 27 -35 38 -35
75 l0 44 -88 49 c-108 62 -481 277 -706 407 l-168 99 -26 -20 c-90 -72 -200
60 -111 134 17 14 35 26 40 26 5 0 9 58 9 131 0 72 -4 129 -8 127 -4 -1 -54
-30 -110 -62 l-102 -60 0 -42 c0 -83 -85 -123 -147 -70 -23 20 -28 32 -27 68
l1 44 -146 84 c-200 114 -412 237 -626 361 -98 57 -183 105 -187 107 -4 2 -20
-6 -34 -17 -31 -24 -58 -26 -95 -7 -25 13 -32 11 -102 -31 l-76 -44 6 -48 c18
-157 -173 -240 -280 -122 -82 91 -39 228 83 261 48 13 108 0 135 -30 25 -28
37 -26 114 20 62 36 69 43 75 79 6 40 43 81 72 81 12 0 14 93 14 560 l0 559
-34 16 c-60 29 -73 90 -27 136 33 33 84 39 117 14 10 -8 24 -15 31 -15 16 0
206 113 209 125 2 6 -44 36 -102 68 l-105 58 -43 -21 c-33 -16 -49 -18 -68
-11 -33 12 -68 57 -68 86 0 28 35 74 66 85 l24 10 0 553 0 554 -37 24 c-29 19
-40 34 -48 67 -10 39 -17 47 -80 84 -61 35 -72 38 -90 27 -44 -29 -90 -49
-111 -49 -68 0 -134 48 -160 117 -23 58 -7 114 47 165 77 73 190 56 245 -39
23 -37 26 -52 21 -94 l-6 -49 76 -45 c72 -42 77 -43 104 -30 38 20 62 19 92
-5 14 -11 28 -20 30 -20 3 0 77 41 164 92 159 92 310 179 631 364 165 95 172
100 166 126 -7 35 20 86 52 98 40 16 60 12 93 -16 26 -21 31 -33 31 -69 l0
-42 106 -62 c58 -33 108 -61 110 -61 2 0 4 59 4 130 0 73 -4 130 -9 130 -5 0
-23 12 -40 26 -88 73 22 204 112 134 l26 -20 83 49 c69 40 531 307 805 464 73
42 73 42 73 86 0 37 5 48 35 75 34 32 35 34 35 113 l0 81 -39 15 c-47 19 -97
77 -106 123 -9 49 10 105 47 141 58 56 114 66 184 34z"/>
<path d="M3705 9179 c-170 -99 -390 -226 -489 -282 -233 -133 -226 -123 -226
-331 l0 -154 178 -103 c97 -56 250 -145 339 -196 l161 -94 34 21 c45 27 74 25
109 -9 39 -39 40 -92 3 -126 -15 -14 -33 -25 -40 -25 -7 0 -14 -4 -16 -10 -1
-5 -1 -184 2 -397 l5 -387 134 -78 c73 -43 137 -75 142 -72 5 3 9 92 9 199 l0
194 -42 19 c-51 23 -72 44 -93 96 -32 75 3 155 85 200 l50 27 0 845 c0 797 -1
844 -17 843 -10 0 -157 -81 -328 -180z"/>
<path d="M4090 8512 l0 -848 45 -22 c73 -35 109 -116 86 -192 -12 -42 -67 -96
-106 -106 l-25 -6 0 -204 c0 -112 2 -204 5 -204 2 0 66 36 142 79 l138 80 3
391 2 390 -24 9 c-13 5 -33 22 -45 37 -36 46 -24 101 29 129 39 20 62 19 94
-6 l26 -21 158 91 c86 49 238 136 337 193 l180 104 3 159 c3 211 14 196 -244
344 -308 178 -486 280 -640 369 -77 45 -146 82 -152 82 -9 0 -12 -212 -12
-848z"/>
<path d="M2480 8473 c-52 -30 -270 -156 -485 -280 -214 -124 -396 -230 -403
-237 -11 -11 7 -25 105 -81 65 -38 138 -80 163 -95 25 -15 126 -74 225 -130
253 -145 479 -275 555 -320 36 -21 143 -83 239 -138 l174 -101 34 27 c50 38
135 43 182 10 58 -40 76 -72 77 -141 l1 -62 167 -98 c91 -54 171 -95 176 -92
15 10 13 310 -2 323 -7 5 -83 50 -168 99 -85 50 -230 133 -322 186 -92 54
-173 97 -180 97 -7 0 -22 -7 -32 -15 -31 -23 -83 -19 -111 10 -47 46 -27 126
38 148 16 6 17 34 17 401 l0 394 -134 76 c-170 97 -182 98 -316 19z"/>
<path d="M5333 8452 l-133 -77 0 -391 0 -392 29 -12 c17 -7 37 -26 46 -46 14
-29 14 -37 1 -68 -24 -57 -89 -75 -137 -37 l-24 19 -165 -96 c-91 -52 -239
-137 -330 -189 -91 -52 -169 -98 -173 -103 -8 -7 -12 -319 -3 -327 2 -3 81 39
175 93 l171 98 -6 51 c-15 146 162 234 272 133 21 -19 22 -18 130 45 60 35
276 160 479 277 542 312 679 392 785 453 52 30 95 58 97 63 1 5 -48 38 -110
73 -61 35 -137 79 -167 97 -30 17 -125 72 -210 121 -85 49 -234 135 -331 191
-225 130 -215 130 -396 24z"/>
<path d="M2990 7955 l0 -375 24 -39 c17 -27 50 -52 113 -88 254 -146 529 -306
540 -315 30 -25 33 6 33 372 0 352 -1 371 -20 408 -19 36 -52 57 -345 226
-178 102 -329 186 -335 186 -7 0 -10 -123 -10 -375z"/>
<path d="M4990 8256 c-69 -40 -201 -117 -295 -171 -93 -54 -182 -105 -196
-113 -58 -34 -59 -38 -59 -454 -1 -209 1 -382 3 -384 2 -2 102 53 223 123 120
69 268 154 327 188 158 91 147 54 147 510 0 294 -3 375 -12 374 -7 0 -69 -33
-138 -73z"/>
<path d="M1550 7321 c0 -562 1 -581 20 -614 15 -25 54 -53 156 -111 l136 -78
91 53 c51 30 202 117 337 195 l245 141 0 41 c0 70 59 113 120 88 40 -17 55
-42 55 -93 l1 -38 122 -69 c67 -38 218 -125 336 -194 158 -91 218 -122 231
-115 75 37 260 150 260 158 0 6 -77 55 -171 109 l-171 98 -21 -20 c-70 -65
-189 -52 -243 27 -19 28 -24 48 -24 97 l0 62 -207 120 c-808 467 -1254 722
-1263 722 -7 0 -10 -184 -10 -579z"/>
<path d="M6510 7871 c-25 -15 -124 -73 -220 -128 -96 -56 -362 -209 -590 -340
-228 -132 -457 -263 -508 -293 l-93 -53 7 -42 c8 -56 -21 -123 -67 -156 -51
-36 -142 -34 -192 4 l-36 27 -170 -97 c-94 -54 -170 -102 -170 -108 0 -5 46
-36 102 -67 56 -32 118 -67 138 -79 l36 -21 154 89 c85 49 235 136 334 193 99
57 182 105 185 107 2 2 3 19 2 38 -3 44 20 80 60 94 61 21 130 -41 114 -103
-5 -22 3 -30 107 -89 61 -36 215 -124 340 -197 l229 -131 133 76 c101 58 139
86 155 112 19 33 20 48 20 614 0 457 -3 579 -12 578 -7 0 -33 -13 -58 -28z"/>
<path d="M3760 7014 c-1 -2 -1 -59 -1 -126 l0 -123 35 -23 c33 -20 40 -34 48
-86 3 -19 168 -125 196 -126 9 0 12 28 12 107 l0 107 -35 32 c-30 27 -35 38
-35 75 l-1 44 -109 62 c-61 34 -110 60 -110 57z"/>
<path d="M4255 6952 l-100 -58 -1 -43 c0 -36 -6 -49 -32 -72 l-32 -29 0 -110
c0 -60 3 -110 7 -110 8 0 131 68 166 92 17 12 27 28 27 44 0 34 25 70 60 84
l30 12 0 124 c0 93 -3 124 -12 124 -7 0 -58 -26 -113 -58z"/>
<path d="M2455 6793 c-415 -240 -509 -293 -517 -293 -27 0 7 -30 83 -74 46
-26 113 -65 149 -86 369 -215 416 -240 453 -240 30 0 68 17 165 74 70 40 215
124 322 186 107 61 199 115 203 120 5 4 -42 37 -105 72 -62 36 -185 107 -273
158 -88 51 -184 106 -214 123 -90 51 -115 48 -266 -40z"/>
<path d="M5147 6682 c-179 -103 -326 -191 -326 -197 -1 -5 144 -93 322 -195
246 -142 331 -186 362 -188 35 -3 64 11 245 116 113 65 260 149 327 188 67 38
122 74 122 79 0 6 -37 30 -82 55 -45 26 -190 108 -322 185 -186 108 -249 139
-281 141 -36 2 -74 -17 -367 -184z"/>
<path d="M3558 6552 c-53 -32 -99 -60 -103 -63 -7 -8 198 -129 218 -129 8 0
20 7 27 15 15 17 69 20 103 4 20 -9 36 -3 120 46 53 31 97 58 97 60 0 2 -44
29 -98 60 -99 55 -99 55 -135 40 -37 -15 -77 -9 -92 14 -11 20 -39 10 -137
-47z"/>
<path d="M4418 6588 c-34 -18 -39 -18 -73 -4 l-37 16 -94 -53 c-51 -28 -93
-57 -94 -62 0 -6 30 -27 68 -48 37 -20 79 -45 95 -54 22 -15 31 -16 47 -5 27
17 85 15 100 -3 7 -8 19 -15 27 -15 15 0 211 108 218 121 5 7 -199 130 -212
128 -5 -1 -25 -10 -45 -21z"/>
<path d="M1722 6371 c-93 -54 -139 -87 -153 -110 -18 -30 -19 -55 -19 -611 0
-458 3 -580 13 -580 6 0 338 189 737 419 l725 419 5 68 c6 82 26 114 88 145
57 28 118 22 168 -16 32 -25 39 -27 58 -15 11 7 82 49 156 92 74 43 141 82
149 87 22 14 7 27 -112 94 -62 35 -121 69 -133 77 -18 11 -26 9 -60 -12 -21
-14 -163 -96 -314 -183 -151 -87 -285 -164 -297 -171 -18 -11 -23 -24 -23 -54
0 -90 -93 -128 -152 -61 -25 28 -29 39 -24 66 l6 33 -117 68 c-65 37 -214 123
-332 192 -117 68 -218 125 -225 127 -6 2 -71 -31 -144 -74z"/>
<path d="M4611 6372 c-74 -43 -136 -82 -138 -88 -2 -5 73 -54 166 -107 l170
-97 36 25 c92 61 199 36 245 -59 17 -37 21 -56 16 -90 l-7 -44 118 -67 c65
-38 138 -80 163 -95 25 -15 126 -74 225 -130 190 -109 332 -191 716 -413 130
-76 241 -137 248 -137 8 0 11 155 11 579 0 557 -1 581 -20 613 -14 24 -55 54
-153 111 l-135 77 -218 -126 c-121 -69 -274 -158 -341 -196 -117 -67 -122 -71
-117 -98 8 -37 -18 -84 -56 -100 -60 -25 -128 28 -117 94 5 31 3 34 -56 68
-378 219 -620 358 -621 358 0 0 -61 -35 -135 -78z"/>
<path d="M3933 6384 c-82 -48 -93 -58 -93 -83 0 -31 -34 -81 -55 -81 -8 0 -17
-5 -20 -10 -6 -10 -9 -249 -3 -255 2 -1 51 25 110 59 l108 61 0 44 c0 37 5 48
35 75 l35 32 0 107 c0 79 -3 107 -12 107 -7 -1 -55 -25 -105 -56z"/>
<path d="M4090 6325 c0 -104 2 -115 20 -125 27 -14 50 -61 47 -95 -2 -26 7
-34 103 -91 58 -34 108 -60 113 -57 4 2 7 60 7 127 l0 124 -30 12 c-39 16 -52
33 -59 78 -6 34 -13 41 -96 89 -50 29 -93 53 -97 53 -5 0 -8 -52 -8 -115z"/>
<path d="M3510 6141 l-165 -98 3 -41 c5 -62 -14 -107 -61 -147 -35 -31 -47
-35 -94 -35 -56 0 -83 9 -118 40 -22 20 37 51 -500 -259 -126 -73 -402 -232
-612 -353 -211 -121 -383 -223 -383 -227 0 -4 48 -35 107 -68 87 -49 373 -213
852 -490 75 -43 106 -37 259 51 l132 78 0 394 c0 234 -4 394 -9 394 -5 0 -23
12 -40 26 -88 74 21 205 112 134 l25 -20 49 29 c47 28 334 194 520 300 51 29
97 59 103 66 14 17 9 317 -5 321 -5 1 -84 -42 -175 -95z"/>
<path d="M4442 6074 l3 -168 100 -57 c55 -31 206 -118 335 -192 l234 -135 27
19 c52 36 111 20 135 -37 19 -46 0 -95 -45 -113 l-31 -13 0 -393 0 -393 136
-78 c154 -87 183 -93 255 -52 43 24 239 137 652 375 111 64 226 130 255 146
29 16 51 34 49 40 -1 5 -32 27 -67 47 -36 20 -290 166 -565 325 -275 158 -573
330 -662 382 -89 51 -167 93 -172 93 -6 0 -27 -11 -47 -25 -43 -29 -118 -34
-162 -11 -62 32 -98 101 -88 168 l6 43 -167 95 c-91 52 -170 97 -175 98 -5 2
-7 -72 -6 -164z"/>
<path d="M4090 5836 l0 -204 24 -6 c59 -15 116 -92 116 -158 0 -61 -56 -133
-117 -152 l-23 -7 0 -855 c0 -470 2 -854 4 -854 2 0 58 31 125 70 220 127 454
262 611 353 85 49 179 103 208 120 30 16 65 46 78 67 24 36 24 42 22 194 l-3
158 -165 95 c-91 52 -243 140 -338 195 l-173 99 -26 -21 c-37 -29 -79 -26
-114 9 -48 48 -34 112 32 146 l29 16 0 382 c0 210 -4 387 -8 393 -6 9 -182
113 -259 153 l-23 12 0 -205z"/>
<path d="M3896 5960 c-66 -38 -123 -73 -128 -78 -13 -13 -10 -786 3 -790 5 -2
23 -15 39 -29 42 -35 41 -83 0 -125 -27 -26 -36 -30 -67 -25 -19 4 -43 13 -53
22 -17 15 -41 3 -359 -181 l-341 -197 0 -153 c0 -138 2 -156 21 -189 24 -40
19 -37 624 -385 204 -117 375 -217 382 -222 7 -5 17 -7 23 -3 7 4 10 275 10
851 l0 844 -45 21 c-54 25 -81 57 -96 112 -20 77 24 160 101 191 l40 16 0 195
c0 179 -1 195 -17 195 -10 0 -72 -32 -137 -70z"/>
<path d="M3559 5766 c-68 -40 -213 -124 -323 -187 -159 -91 -203 -121 -222
-151 l-24 -38 0 -373 c0 -206 2 -376 5 -379 3 -3 153 79 333 183 284 163 330
193 349 226 22 37 22 45 23 410 0 204 -4 374 -8 377 -4 2 -64 -28 -133 -68z"/>
<path d="M4440 5833 c0 -4 0 -178 0 -385 0 -337 2 -380 18 -407 17 -31 33 -40
472 -293 l205 -118 3 382 2 382 -24 37 c-18 27 -57 55 -148 107 -98 55 -488
279 -520 299 -5 2 -8 1 -8 -4z"/>
<path d="M22100 7638 l0 -603 -26 45 c-80 142 -227 219 -394 207 -357 -25
-605 -453 -627 -1082 -19 -542 134 -984 399 -1156 109 -70 248 -87 368 -44
109 38 221 148 284 278 l34 68 5 -43 c3 -24 9 -96 13 -160 l6 -118 206 0 205
0 -7 53 c-3 28 -6 751 -6 1605 l0 1552 -230 0 -230 0 0 -602z m-173 -904 c73
-42 131 -141 158 -271 20 -91 20 -507 1 -613 -28 -151 -89 -256 -177 -300
-110 -57 -241 6 -313 149 -110 216 -110 655 0 887 76 160 207 218 331 148z"/>
<path d="M9373 8111 c-358 -58 -655 -325 -817 -738 -47 -119 -101 -326 -123
-473 -25 -166 -25 -618 0 -780 82 -527 301 -885 640 -1046 130 -61 211 -77
397 -78 169 -1 227 7 350 46 68 22 155 62 163 75 3 5 -10 125 -29 268 -18 143
-34 263 -34 268 0 4 -22 -4 -49 -18 -114 -57 -315 -89 -431 -67 -188 35 -324
144 -420 336 -78 153 -117 329 -127 566 -19 465 107 828 344 991 157 109 393
116 600 19 l82 -38 5 26 c26 133 86 508 82 518 -8 21 -146 82 -236 104 -95 23
-310 34 -397 21z"/>
<path d="M15088 7793 l-218 -76 0 -238 0 -239 -95 0 -95 0 0 -255 0 -255 94 0
94 0 5 -567 c3 -456 7 -587 20 -663 43 -261 126 -398 287 -474 61 -29 72 -31
180 -31 113 0 198 14 253 42 l27 14 -2 257 -3 257 -30 -5 c-16 -3 -60 -5 -97
-5 -52 0 -73 5 -95 21 -83 62 -92 129 -93 696 l0 458 163 2 162 3 3 253 2 252
-165 0 -165 0 0 315 c0 173 -3 315 -7 314 -5 0 -106 -34 -225 -76z"/>
<path d="M10979 7276 c-131 -47 -240 -185 -301 -380 l-22 -71 -7 90 c-4 50 -7
143 -8 208 l-1 117 -201 0 -202 0 7 -61 c3 -34 6 -532 6 -1105 l0 -1044 230 0
229 0 4 648 c3 558 5 654 19 699 37 121 88 194 167 241 42 25 55 27 149 27
l102 0 -2 320 -3 320 -65 2 c-36 2 -81 -3 -101 -11z"/>
<path d="M13803 7275 c-81 -22 -151 -62 -211 -119 -50 -47 -127 -152 -147
-201 -11 -27 -21 34 -30 178 l-7 107 -200 0 -201 0 6 -67 c4 -38 7 -735 7
-1550 l0 -1483 230 0 230 0 0 547 0 547 43 -65 c155 -230 454 -251 673 -47
115 108 188 231 250 421 63 196 79 316 79 612 0 227 -3 276 -23 384 -64 357
-218 619 -417 712 -80 38 -198 48 -282 24z m54 -546 c120 -58 196 -249 209
-524 20 -407 -107 -695 -306 -695 -114 0 -206 93 -257 255 -16 53 -18 97 -18
355 0 258 2 302 18 354 39 127 104 218 182 259 43 23 120 21 172 -4z"/>
<path d="M16465 7276 c-322 -75 -534 -350 -617 -802 -29 -163 -32 -527 -4
-679 37 -203 104 -379 194 -512 60 -89 178 -194 265 -237 246 -121 520 -72
723 129 203 201 305 489 321 900 23 614 -198 1072 -574 1191 -68 22 -234 27
-308 10z m204 -496 c49 -25 87 -69 122 -145 115 -245 118 -733 6 -987 -43 -96
-135 -177 -202 -178 -80 0 -165 64 -213 163 -142 290 -114 898 51 1093 59 69
161 93 236 54z"/>
<path d="M18407 7280 c-129 -33 -264 -151 -338 -299 l-23 -46 -7 45 c-4 25
-10 93 -14 153 l-7 107 -200 0 -201 0 7 -61 c3 -34 6 -532 6 -1105 l0 -1044
230 0 230 0 0 678 c0 733 2 753 55 870 28 61 74 115 117 138 35 18 121 18 156
0 57 -29 100 -99 129 -208 15 -56 17 -146 20 -770 l4 -708 230 0 231 0 -5 758
c-5 819 -8 869 -63 1059 -41 144 -88 228 -174 314 -59 59 -88 81 -135 99 -67
25 -187 35 -248 20z"/>
<path d="M19955 7276 c-322 -75 -534 -350 -617 -802 -29 -163 -32 -527 -4
-679 37 -203 104 -379 194 -512 60 -89 178 -194 265 -237 246 -121 520 -72
723 129 203 201 305 489 321 900 23 614 -198 1072 -574 1191 -68 22 -234 27
-308 10z m204 -496 c49 -25 87 -69 122 -145 115 -245 118 -733 6 -987 -43 -96
-135 -177 -202 -178 -80 0 -165 64 -213 163 -142 290 -114 898 51 1093 59 69
161 93 236 54z"/>
<path d="M23443 7276 c-289 -66 -500 -364 -585 -826 -28 -152 -31 -512 -5
-660 103 -594 425 -864 937 -785 141 21 350 97 350 127 0 17 -50 409 -55 435
l-5 22 -60 -25 c-105 -42 -186 -57 -320 -58 -108 0 -133 3 -182 22 -135 54
-247 217 -248 360 l0 32 469 0 468 0 7 61 c10 96 7 349 -5 457 -41 375 -173
653 -366 775 -106 66 -270 92 -400 63z m180 -460 c93 -39 156 -168 173 -352
l7 -74 -272 0 c-149 0 -271 2 -271 4 0 2 7 42 15 90 38 219 135 346 262 346
30 0 68 -6 86 -14z"/>
<path d="M24920 7276 c-81 -21 -128 -43 -196 -91 -124 -88 -208 -227 -250
-413 -21 -92 -24 -290 -6 -372 50 -221 187 -385 427 -508 102 -53 153 -95 176
-146 40 -89 11 -209 -61 -251 -28 -16 -52 -20 -125 -19 -77 0 -102 5 -171 32
-44 18 -111 52 -147 77 -45 30 -69 41 -72 33 -2 -7 -21 -115 -41 -240 -30
-186 -35 -230 -24 -243 39 -47 205 -115 335 -136 92 -14 247 -7 325 17 208 61
355 223 416 459 27 105 25 361 -4 468 -49 179 -166 328 -330 417 -142 77 -229
138 -253 176 -57 93 -21 230 71 266 76 30 225 -2 336 -71 l61 -38 40 231 c28
164 37 235 30 244 -16 21 -114 67 -192 92 -91 28 -266 36 -345 16z"/>
<path d="M11290 7235 c0 -3 124 -472 276 -1042 166 -624 275 -1054 276 -1082
0 -90 -83 -251 -179 -348 -60 -59 -157 -127 -198 -137 -17 -4 -25 -13 -25 -27
0 -16 41 -272 85 -536 l6 -32 52 16 c146 43 317 179 422 338 148 221 285 603
439 1220 24 99 119 500 211 890 91 391 168 718 171 728 5 16 -11 17 -239 17
-225 0 -245 -1 -249 -17 -3 -10 -58 -345 -124 -745 -65 -401 -121 -728 -125
-728 -3 0 -13 48 -22 108 -9 59 -74 394 -144 745 l-128 637 -252 0 c-139 0
-253 -2 -253 -5z"/>
</g>
</svg>
